<svg width="24" height="25" viewBox="0 0 24 25" fill="none" xmlns="http://www.w3.org/2000/svg">
<path fill-rule="evenodd" clip-rule="evenodd" d="M0 12.45C0 18.6201 4.28998 25 11.48 25C18.69 25 23 18.6201 23.01 12.4399V1.55005C23.01 0.699951 22.33 0 21.48 0C20.65 0 19.97 0.659912 19.94 1.5C19.82 5.20996 19.09 8.48999 18.02 10.1699C17.9517 10.0791 17.8892 9.98804 17.8238 9.89258L17.76 9.80005L17.7349 9.76367C17.361 9.22241 16.937 8.6084 16.36 8.09009C14.87 6.75 13.03 6.65991 11.56 7.80005C10.13 6.6499 8.26001 6.75 6.77002 8.09009C6.19299 8.6084 5.76898 9.22241 5.39514 9.76367L5.37 9.80005L5.36292 9.8103C5.27533 9.93677 5.18793 10.063 5.10999 10.1699C4.04999 8.47998 3.28998 5.12988 3.17999 1.5C3.14001 0.679932 2.44 0.0100098 1.59998 0.0100098C0.72998 0.0100098 0 0.719971 0 1.56006V12.45ZM1 1.55005C1 1.26001 1.28003 1 1.59998 1C1.90002 1 2.15997 1.23999 2.17999 1.53003C2.28003 4.69995 2.92999 8.83008 4.44 10.96C4.07001 11.26 3.67999 11.3101 3.09998 11.0601L2.90002 10.97C2.70001 10.8799 2.47998 10.9299 2.33002 11.0801C2.17999 11.24 2.15002 11.47 2.25 11.6599C2.47998 12.1101 3.35999 13.6101 5.04999 13.9399C5.71002 14.0601 6.40002 13.99 7.10999 13.73C7.58002 14.04 8.06 14.29 8.58002 14.48C9.51001 14.8201 10.5 15 11.54 15C13.22 15 14.71 14.5701 15.99 13.72C16.74 14 17.45 14.0701 18.14 13.9199C19.9467 13.5293 20.7997 11.7844 20.8759 11.6287L20.88 11.6201C20.97 11.4199 20.92 11.2 20.77 11.05C20.62 10.8999 20.39 10.8701 20.2 10.96C19.51 11.3101 19.09 11.29 18.68 10.95C20.19 8.8501 20.83 4.70996 20.93 1.53003C20.94 1.22998 21.17 1 21.47 1C21.77 1 22 1.23999 22 1.55005V12.4399C22 18.1201 18.06 23.99 11.48 23.99C4.91998 23.99 1 18.1201 1 12.4399V1.55005ZM8.16998 13.2002C8.40997 13.3301 8.66998 13.4402 8.92999 13.54C9.75 13.8401 10.63 14 11.55 14C12.83 14 13.94 13.74 14.94 13.2002C14.54 12.9502 14.13 12.6501 13.72 12.28C12.7036 11.3918 11.8623 11.8186 11.802 11.8491L11.8 11.8501C11.64 11.9302 11.45 11.9302 11.3 11.8401C11.27 11.8201 10.44 11.3801 9.40997 12.28C8.97998 12.6501 8.57001 12.9502 8.16998 13.2002ZM17.92 12.9502C17.38 13.0601 16.79 12.9902 16.16 12.7202C16.14 12.7102 16.12 12.7002 16.1 12.7002C15.55 12.4602 14.98 12.0701 14.37 11.54C13.16 10.4802 12.04 10.7002 11.55 10.8801C11.07 10.7002 9.96002 10.4802 8.75 11.54C7.44 12.6802 6.27002 13.1501 5.24005 12.9602C4.69 12.8501 4.24005 12.55 3.90002 12.2202C4.96002 12.1501 5.61005 11.2202 6.19 10.3701C6.55005 9.84009 6.93005 9.29004 7.43005 8.84009C8.39001 7.97021 9.88 7.51001 11.19 8.82007C11.38 9.01001 11.69 9.02002 11.89 8.83008C13.04 7.73022 14.46 7.74023 15.6801 8.84009C16.1474 9.26074 16.5012 9.7688 16.8476 10.2661L16.92 10.3701C17.5 11.2202 18.15 12.1602 19.22 12.2202C18.9 12.54 18.46 12.8301 17.92 12.9502Z" fill="#0E1D25"/>
</svg>
