<svg width="242" height="49" viewBox="0 0 242 49" version="1.1" xmlns="http://www.w3.org/2000/svg" xmlns:xlink="http://www.w3.org/1999/xlink">
<title>BIGledger</title>
<desc>Created using Figma</desc>
<g id="Canvas" transform="translate(332 412)">
<g id="BIGledger">
<use xlink:href="#path0_fill" transform="translate(-335 -419)" fill="url(#paint0_linear)"/>
</g>
</g>
<defs>
<linearGradient id="paint0_linear" x1="0" y1="0" x2="1" y2="0" gradientUnits="userSpaceOnUse" gradientTransform="matrix(328.98 -3.25103e-05 0.000129765 2241.3 -32.898 -1082.65)">
<stop offset="0" stop-color="#0575E6"/>
<stop offset="1" stop-color="#3EC7E0"/>
</linearGradient>
<path id="path0_fill" d="M 18.4219 45L 7.92188 45C 6.40625 45 5.32031 44.6641 4.66406 43.9922C 4.02344 43.3047 3.70312 42.2188 3.70312 40.7344L 3.70312 14.9062C 3.70312 13.3906 4.03125 12.3047 4.6875 11.6484C 5.35938 10.9766 6.4375 10.6406 7.92188 10.6406L 19.0547 10.6406C 20.6953 10.6406 22.1172 10.7422 23.3203 10.9453C 24.5234 11.1484 25.6016 11.5391 26.5547 12.1172C 27.3672 12.6016 28.0859 13.2188 28.7109 13.9688C 29.3359 14.7031 29.8125 15.5234 30.1406 16.4297C 30.4688 17.3203 30.6328 18.2656 30.6328 19.2656C 30.6328 22.7031 28.9141 25.2188 25.4766 26.8125C 29.9922 28.25 32.25 31.0469 32.25 35.2031C 32.25 37.125 31.7578 38.8594 30.7734 40.4062C 29.7891 41.9375 28.4609 43.0703 26.7891 43.8047C 25.7422 44.2422 24.5391 44.5547 23.1797 44.7422C 21.8203 44.9141 20.2344 45 18.4219 45ZM 17.9062 29.7422L 10.6641 29.7422L 10.6641 39.7734L 18.1406 39.7734C 22.8438 39.7734 25.1953 38.0781 25.1953 34.6875C 25.1953 32.9531 24.5859 31.6953 23.3672 30.9141C 22.1484 30.1328 20.3281 29.7422 17.9062 29.7422ZM 10.6641 15.8672L 10.6641 24.75L 17.0391 24.75C 18.7734 24.75 20.1094 24.5859 21.0469 24.2578C 22 23.9297 22.7266 23.3047 23.2266 22.3828C 23.6172 21.7266 23.8125 20.9922 23.8125 20.1797C 23.8125 18.4453 23.1953 17.2969 21.9609 16.7344C 20.7266 16.1563 18.8438 15.8672 16.3125 15.8672L 10.6641 15.8672ZM 38.5781 41.3438L 38.5781 14.2734C 38.5781 12.8672 38.8984 11.8125 39.5391 11.1094C 40.1797 10.4062 41.0078 10.0547 42.0234 10.0547C 43.0703 10.0547 43.9141 10.4062 44.5547 11.1094C 45.2109 11.7969 45.5391 12.8516 45.5391 14.2734L 45.5391 41.3438C 45.5391 42.7656 45.2109 43.8281 44.5547 44.5312C 43.9141 45.2344 43.0703 45.5859 42.0234 45.5859C 41.0234 45.5859 40.1953 45.2344 39.5391 44.5312C 38.8984 43.8125 38.5781 42.75 38.5781 41.3438ZM 84.7266 31.0312L 84.7266 37.6172C 84.7266 38.4922 84.6406 39.1953 84.4688 39.7266C 84.2969 40.2422 83.9766 40.7109 83.5078 41.1328C 83.0547 41.5547 82.4687 41.9609 81.75 42.3516C 79.6719 43.4766 77.6719 44.2969 75.75 44.8125C 73.8281 45.3281 71.7344 45.5859 69.4688 45.5859C 66.8281 45.5859 64.4219 45.1797 62.25 44.3672C 60.0781 43.5547 58.2266 42.375 56.6953 40.8281C 55.1641 39.2812 53.9844 37.4062 53.1562 35.2031C 52.3438 33 51.9375 30.5391 51.9375 27.8203C 51.9375 25.1484 52.3359 22.7031 53.1328 20.4844C 53.9297 18.2656 55.1016 16.3828 56.6484 14.8359C 58.1953 13.2891 60.0781 12.1094 62.2969 11.2969C 64.5156 10.4687 67.0312 10.0547 69.8438 10.0547C 72.1563 10.0547 74.2031 10.3672 75.9844 10.9922C 77.7656 11.6016 79.2109 12.375 80.3203 13.3125C 81.4297 14.25 82.2656 15.2422 82.8281 16.2891C 83.3906 17.3359 83.6719 18.2656 83.6719 19.0781C 83.6719 19.9531 83.3438 20.7031 82.6875 21.3281C 82.0469 21.9375 81.2734 22.2422 80.3672 22.2422C 79.8672 22.2422 79.3828 22.125 78.9141 21.8906C 78.4609 21.6562 78.0781 21.3281 77.7656 20.9062C 76.9063 19.5625 76.1797 18.5469 75.5859 17.8594C 74.9922 17.1719 74.1875 16.5938 73.1719 16.125C 72.1719 15.6562 70.8906 15.4219 69.3281 15.4219C 67.7187 15.4219 66.2812 15.7031 65.0156 16.2656C 63.75 16.8125 62.6641 17.6172 61.7578 18.6797C 60.8672 19.7266 60.1797 21.0156 59.6953 22.5469C 59.2266 24.0781 58.9922 25.7734 58.9922 27.6328C 58.9922 31.6641 59.9141 34.7656 61.7578 36.9375C 63.6172 39.1094 66.2031 40.1953 69.5156 40.1953C 71.125 40.1953 72.6328 39.9844 74.0391 39.5625C 75.4609 39.1406 76.8984 38.5391 78.3516 37.7578L 78.3516 32.1797L 72.9609 32.1797C 71.6641 32.1797 70.6797 31.9844 70.0078 31.5938C 69.3516 31.2031 69.0234 30.5391 69.0234 29.6016C 69.0234 28.8359 69.2969 28.2031 69.8438 27.7031C 70.4062 27.2031 71.1641 26.9531 72.1172 26.9531L 80.0156 26.9531C 80.9844 26.9531 81.8047 27.0391 82.4766 27.2109C 83.1484 27.3828 83.6875 27.7656 84.0938 28.3594C 84.5156 28.9531 84.7266 29.8437 84.7266 31.0312ZM 90.9694 9.336C 90.9694 8.792 91.1454 8.36 91.4974 8.04C 91.8494 7.688 92.2814 7.512 92.7934 7.512C 93.3374 7.512 93.7694 7.688 94.0894 8.04C 94.4414 8.36 94.6174 8.792 94.6174 9.336L 94.6174 36.696C 94.6174 38.072 94.8894 39.192 95.4334 40.056C 96.0094 40.92 96.7294 41.352 97.5934 41.352L 98.7934 41.352C 99.2734 41.352 99.6574 41.528 99.9454 41.88C 100.233 42.2 100.377 42.632 100.377 43.176C 100.377 43.72 100.169 44.168 99.7534 44.52C 99.3694 44.84 98.8574 45 98.2174 45L 97.5934 45C 95.6414 45 94.0414 44.232 92.7934 42.696C 91.5774 41.128 90.9694 39.128 90.9694 36.696L 90.9694 9.336ZM 115.207 18.504C 117.575 18.504 119.671 19.064 121.495 20.184C 123.319 21.272 124.727 22.792 125.719 24.744C 126.743 26.696 127.255 28.92 127.255 31.416C 127.255 31.928 127.095 32.344 126.775 32.664C 126.455 32.952 126.039 33.096 125.527 33.096L 106.135 33.096C 106.391 35.72 107.415 37.848 109.207 39.48C 110.999 41.112 113.239 41.928 115.927 41.928C 117.079 41.928 118.231 41.736 119.383 41.352C 120.567 40.936 121.511 40.424 122.215 39.816C 122.631 39.496 123.063 39.336 123.511 39.336C 123.863 39.336 124.215 39.464 124.567 39.72C 124.983 40.104 125.191 40.536 125.191 41.016C 125.191 41.432 125.015 41.8 124.663 42.12C 123.607 43.016 122.263 43.768 120.631 44.376C 118.999 44.952 117.431 45.24 115.927 45.24C 113.367 45.24 111.079 44.68 109.063 43.56C 107.047 42.408 105.463 40.824 104.311 38.808C 103.191 36.76 102.631 34.456 102.631 31.896C 102.631 29.304 103.159 27 104.215 24.984C 105.303 22.936 106.791 21.352 108.679 20.232C 110.599 19.08 112.775 18.504 115.207 18.504ZM 115.207 21.816C 112.775 21.816 110.759 22.568 109.159 24.072C 107.559 25.576 106.583 27.56 106.231 30.024L 123.799 30.024C 123.543 27.56 122.647 25.576 121.111 24.072C 119.575 22.568 117.607 21.816 115.207 21.816ZM 157.818 20.136C 157.85 20.232 157.866 20.376 157.866 20.568L 157.866 31.848C 157.866 34.344 157.274 36.616 156.09 38.664C 154.938 40.712 153.338 42.328 151.29 43.512C 149.274 44.664 147.018 45.24 144.522 45.24C 142.026 45.24 139.754 44.664 137.706 43.512C 135.69 42.328 134.09 40.712 132.906 38.664C 131.754 36.616 131.178 34.344 131.178 31.848C 131.178 29.352 131.738 27.096 132.858 25.08C 134.01 23.032 135.562 21.432 137.514 20.28C 139.498 19.096 141.706 18.504 144.138 18.504C 146.218 18.504 148.122 18.952 149.85 19.848C 151.578 20.712 153.002 21.912 154.122 23.448L 154.122 9.384C 154.122 8.84 154.298 8.392 154.65 8.04C 155.002 7.688 155.45 7.512 155.994 7.512C 156.538 7.512 156.97 7.688 157.29 8.04C 157.642 8.392 157.818 8.84 157.818 9.384L 157.818 20.136ZM 144.522 41.88C 146.346 41.88 147.994 41.448 149.466 40.584C 150.938 39.688 152.09 38.488 152.922 36.984C 153.786 35.448 154.218 33.736 154.218 31.848C 154.218 31.304 154.202 30.904 154.17 30.648C 154.138 30.584 154.122 30.504 154.122 30.408C 153.802 27.912 152.746 25.864 150.954 24.264C 149.194 22.664 147.05 21.864 144.522 21.864C 142.698 21.864 141.034 22.296 139.53 23.16C 138.058 24.024 136.89 25.224 136.026 26.76C 135.194 28.264 134.778 29.96 134.778 31.848C 134.778 33.736 135.194 35.448 136.026 36.984C 136.89 38.488 138.058 39.688 139.53 40.584C 141.034 41.448 142.698 41.88 144.522 41.88ZM 178.459 18.504C 181.019 18.504 183.307 19.08 185.323 20.232C 187.339 21.352 188.923 22.936 190.075 24.984C 191.228 27 191.803 29.304 191.803 31.896L 191.803 41.688C 191.803 44.248 191.228 46.568 190.075 48.648C 188.955 50.728 187.387 52.36 185.372 53.544C 183.356 54.76 181.083 55.368 178.555 55.368C 176.091 55.368 173.9 54.904 171.979 53.976C 170.06 53.048 168.444 51.752 167.132 50.088C 166.844 49.768 166.699 49.4 166.699 48.984C 166.699 48.504 166.924 48.088 167.372 47.736C 167.691 47.512 168.044 47.4 168.427 47.4C 168.716 47.4 169.004 47.464 169.292 47.592C 169.579 47.752 169.804 47.944 169.964 48.168C 170.923 49.384 172.139 50.328 173.612 51C 175.083 51.672 176.748 52.008 178.604 52.008C 180.396 52.008 182.011 51.56 183.451 50.664C 184.924 49.8 186.075 48.568 186.907 46.968C 187.739 45.4 188.156 43.592 188.156 41.544L 188.156 39.384C 187.196 41.208 185.835 42.648 184.076 43.704C 182.316 44.728 180.315 45.24 178.076 45.24C 175.58 45.24 173.339 44.68 171.355 43.56C 169.403 42.408 167.867 40.824 166.747 38.808C 165.66 36.76 165.116 34.456 165.116 31.896C 165.116 29.304 165.691 27 166.844 24.984C 167.995 22.936 169.579 21.352 171.595 20.232C 173.644 19.08 175.931 18.504 178.459 18.504ZM 178.459 41.88C 180.315 41.88 181.98 41.464 183.451 40.632C 184.924 39.768 186.075 38.584 186.907 37.08C 187.739 35.544 188.156 33.816 188.156 31.896C 188.156 29.976 187.739 28.264 186.907 26.76C 186.075 25.224 184.924 24.024 183.451 23.16C 181.98 22.296 180.315 21.864 178.459 21.864C 176.572 21.864 174.892 22.296 173.419 23.16C 171.947 24.024 170.795 25.224 169.964 26.76C 169.132 28.264 168.716 29.976 168.716 31.896C 168.716 33.816 169.132 35.544 169.964 37.08C 170.795 38.584 171.947 39.768 173.419 40.632C 174.892 41.464 176.572 41.88 178.459 41.88ZM 210.176 18.504C 212.544 18.504 214.64 19.064 216.464 20.184C 218.288 21.272 219.696 22.792 220.688 24.744C 221.712 26.696 222.224 28.92 222.224 31.416C 222.224 31.928 222.064 32.344 221.744 32.664C 221.424 32.952 221.008 33.096 220.496 33.096L 201.104 33.096C 201.36 35.72 202.384 37.848 204.176 39.48C 205.968 41.112 208.208 41.928 210.896 41.928C 212.048 41.928 213.2 41.736 214.352 41.352C 215.536 40.936 216.48 40.424 217.184 39.816C 217.6 39.496 218.032 39.336 218.48 39.336C 218.832 39.336 219.184 39.464 219.536 39.72C 219.952 40.104 220.16 40.536 220.16 41.016C 220.16 41.432 219.984 41.8 219.632 42.12C 218.576 43.016 217.232 43.768 215.6 44.376C 213.968 44.952 212.4 45.24 210.896 45.24C 208.336 45.24 206.048 44.68 204.032 43.56C 202.016 42.408 200.432 40.824 199.28 38.808C 198.16 36.76 197.6 34.456 197.6 31.896C 197.6 29.304 198.128 27 199.184 24.984C 200.272 22.936 201.76 21.352 203.648 20.232C 205.568 19.08 207.744 18.504 210.176 18.504ZM 210.176 21.816C 207.744 21.816 205.728 22.568 204.128 24.072C 202.528 25.576 201.552 27.56 201.2 30.024L 218.768 30.024C 218.512 27.56 217.616 25.576 216.08 24.072C 214.544 22.568 212.576 21.816 210.176 21.816ZM 240.332 18.456C 241.676 18.456 242.732 18.632 243.5 18.984C 244.3 19.336 244.7 19.832 244.7 20.472C 244.7 20.664 244.684 20.808 244.652 20.904C 244.524 21.352 244.316 21.656 244.028 21.816C 243.772 21.976 243.404 22.056 242.924 22.056C 242.636 22.056 242.14 22.024 241.436 21.96C 241.18 21.928 240.796 21.912 240.284 21.912C 237.884 21.912 235.916 22.552 234.38 23.832C 232.876 25.112 232.124 26.776 232.124 28.824L 232.124 43.176C 232.124 43.752 231.964 44.2 231.644 44.52C 231.324 44.84 230.876 45 230.3 45C 229.724 45 229.276 44.84 228.956 44.52C 228.636 44.2 228.476 43.752 228.476 43.176L 228.476 20.568C 228.476 19.992 228.636 19.544 228.956 19.224C 229.276 18.904 229.724 18.744 230.3 18.744C 230.876 18.744 231.324 18.904 231.644 19.224C 231.964 19.544 232.124 19.992 232.124 20.568L 232.124 22.68C 233.052 21.336 234.236 20.296 235.676 19.56C 237.116 18.824 238.668 18.456 240.332 18.456Z"/>
</defs>
</svg>
