<svg width="437" height="246" viewBox="0 0 437 246" version="1.1" xmlns="http://www.w3.org/2000/svg" xmlns:xlink="http://www.w3.org/1999/xlink" xmlns:figma="http://www.figma.com/figma/ns">
  <title>Capa 1</title>
  <desc>Created using Figma</desc>
  <g id="Canvas" transform="translate(191 934)" figma:type="canvas">
    <g id="Capa 1" figma:type="frame">
      <g id="Vector" figma:type="vector">
        <use xlink:href="#path0_fill" transform="translate(-191 -934)"/>
      </g>
    </g>
  </g>
  <defs>
    <path
      id="path0_fill"
      d="M 343.746 59.031C 331.05 59.031 318.942 61.589 307.904 66.211L 281.51 15L 318.4 15C 322.402 15 325.658 18.256 325.658 22.258C 325.658 26.26 322.402 29.516 318.4 29.516L 310.529 29.516C 306.386 29.516 303.029 32.874 303.029 37.016C 303.029 41.158 306.386 44.516 310.529 44.516L 318.4 44.516C 330.673 44.516 340.658 34.531 340.658 22.258C 340.658 9.985 330.674 -2.44141e-06 318.4 -2.44141e-06L 269.208 -2.44141e-06C 266.593 -2.44141e-06 264.166 1.363 262.804 3.596C 261.443 5.829 261.343 8.611 262.541 10.936L 275.666 36.403L 167.423 36.403L 156.503 15L 173.772 15C 177.915 15 181.272 11.642 181.272 7.5C 181.272 3.358 177.915 -2.44141e-06 173.772 -2.44141e-06L 124.579 -2.44141e-06C 120.436 -2.44141e-06 117.079 3.358 117.079 7.5C 117.079 11.642 120.436 15 124.579 15L 139.663 15L 154.239 43.568L 137.107 70.111C 123.994 63.046 109.006 59.031 93.096 59.031C 41.763 59.031 0 100.793 0 152.126C 0 203.459 41.763 245.222 93.096 245.222C 141.904 245.222 182.057 207.465 185.889 159.626L 207.896 159.626L 199.347 187.444L 194.425 187.444C 190.282 187.444 186.925 190.802 186.925 194.944C 186.925 199.086 190.282 202.444 194.425 202.444L 221.425 202.444C 225.568 202.444 228.925 199.086 228.925 194.944C 228.925 190.802 225.568 187.444 221.425 187.444L 215.039 187.444L 224.908 155.33L 287.314 59.003L 294.583 73.106C 268.226 89.564 250.65 118.829 250.65 152.126C 250.65 203.459 292.413 245.222 343.747 245.222C 395.08 245.222 436.843 203.459 436.843 152.126C 436.842 100.793 395.079 59.031 343.746 59.031ZM 162.121 59.016L 205.799 144.626L 185.888 144.626C 183.726 117.641 170.006 93.868 149.695 78.267L 162.121 59.016ZM 170.824 144.626L 106.864 144.626L 141.525 90.927C 157.734 103.782 168.745 122.914 170.824 144.626ZM 93.096 230.222C 50.033 230.222 15 195.189 15 152.126C 15 109.064 50.033 74.03 93.096 74.03C 106.01 74.03 118.191 77.2 128.933 82.773L 86.794 148.058C 85.305 150.365 85.196 153.302 86.51 155.713C 87.823 158.124 90.35 159.625 93.096 159.625L 170.824 159.625C 167.036 199.182 133.628 230.222 93.096 230.222ZM 218.819 137.139L 175.076 51.402L 274.365 51.402L 218.819 137.139ZM 343.746 230.222C 300.683 230.222 265.649 195.188 265.649 152.126C 265.649 124.628 279.947 100.422 301.487 86.503L 337.079 155.562C 338.411 158.145 341.033 159.627 343.752 159.627C 344.909 159.627 346.083 159.358 347.182 158.792C 350.865 156.895 352.311 152.372 350.413 148.689L 314.81 79.61C 323.766 76.024 333.524 74.029 343.746 74.029C 386.809 74.029 421.842 109.063 421.842 152.125C 421.842 195.189 386.809 230.222 343.746 230.222Z"/>
  </defs>
</svg>
