<svg width="106" height="116" viewBox="0 0 106 116" version="1.1" xmlns="http://www.w3.org/2000/svg" xmlns:xlink="http://www.w3.org/1999/xlink">
<title>B</title>
<desc>Created using Figma</desc>
<g id="Canvas" transform="translate(45 85)">
<g id="B">
<g id="logo">
<g id="B">
<use xlink:href="#path0_fill" transform="translate(-48 -124)" fill="#007AFF"/>
</g>
</g>
</g>
</g>
<defs>
<path id="path0_fill" d="M 103.19 67.3C 103.19 78.86 96.6167 87.02 83.47 91.78C 88.23 93.2533 92.14 94.8967 95.2 96.71C 104.38 102.037 108.97 110.027 108.97 120.68C 108.97 131.107 104.947 139.437 96.9 145.67C 88.8533 151.79 78.0867 154.85 64.6 154.85C 59.7267 154.85 53.55 154.567 46.07 154C 38.59 153.433 33.0933 153.15 29.58 153.15C 26.52 153.15 23.63 153.32 20.91 153.66L 12.92 154.68C 12.6933 154.68 12.2967 154.737 11.73 154.85C 11.1633 154.85 10.7667 154.85 10.54 154.85C 5.66667 154.737 3.23 152.697 3.23 148.73C 3.23 145.103 4.98667 143.29 8.5 143.29C 9.40667 143.29 10.9367 143.46 13.09 143.8C 14.5633 144.027 15.7533 144.14 16.66 144.14C 22.44 144.14 25.33 139.947 25.33 131.56L 25.33 63.22C 25.33 54.72 22.44 50.47 16.66 50.47C 15.64 50.47 14.45 50.5833 13.09 50.81C 11.05 51.15 9.52 51.32 8.5 51.32C 4.98667 51.32 3.23 49.5067 3.23 45.88C 3.23 41.9133 5.83667 39.93 11.05 39.93L 13.26 39.93L 21.59 41.12C 23.97 41.46 27.2 41.63 31.28 41.63C 35.5867 41.63 41.7067 41.29 49.64 40.61C 54.9667 40.1567 60.69 39.93 66.81 39.93C 78.2567 39.93 87.1533 42.3667 93.5 47.24C 99.96 52 103.19 58.6867 103.19 67.3ZM 38.08 74.61C 38.08 80.6167 38.59 84.3567 39.61 85.83C 40.7433 87.19 43.7467 87.87 48.62 87.87L 58.14 87.87C 78.2 87.87 88.23 81.3533 88.23 68.32C 88.23 56.42 79.9567 50.47 63.41 50.47C 51.85 50.47 44.71 51.2067 41.99 52.68C 39.3833 54.1533 38.08 57.95 38.08 64.07L 38.08 74.61ZM 38.08 109.12L 38.08 127.99C 38.08 135.357 39.3267 139.89 41.82 141.59C 44.3133 143.29 51.1133 144.14 62.22 144.14C 83.4133 144.14 94.01 136.207 94.01 120.34C 94.01 105.72 83.81 98.41 63.41 98.41L 49.3 98.41C 43.18 98.41 39.6667 99.77 38.76 102.49C 38.3067 103.85 38.08 106.06 38.08 109.12Z"/>
</defs>
</svg>
