<svg width="1345" height="566" viewBox="0 0 1345 566" version="1.1" xmlns="http://www.w3.org/2000/svg" xmlns:xlink="http://www.w3.org/1999/xlink" xmlns:figma="http://www.figma.com/figma/ns">
<title>Hot/Cold</title>
<desc>Created using Figma</desc>
<g id="Canvas" transform="translate(3096 2641)" figma:type="canvas">
<g id="Hot/Cold" figma:type="frame">
<g id="Layer_1" figma:type="frame">
<g id="Group" figma:type="frame">
<g id="Shape" figma:type="vector">
<use xlink:href="#path0_fill" transform="matrix(1 0 0 -1 -2096.01 -2075.22)" fill="#0A1E60"/>
</g>
<g id="Shape" figma:type="vector">
<use xlink:href="#path1_fill" transform="matrix(1 0 0 -1 -3096 -2082.88)" fill="#FF2222"/>
</g>
<g id="Shape" figma:type="vector">
<use xlink:href="#path2_fill" transform="matrix(1 0 0 -1 -2444.35 -2385.06)" fill="#4D4B45"/>
</g>
<g id="Shape" figma:type="vector">
<use xlink:href="#path3_fill" transform="matrix(1 0 0 -1 -2582.94 -2315.69)" fill="#4D4B45"/>
</g>
<g id="Shape" figma:type="vector">
<use xlink:href="#path4_fill" transform="matrix(1 0 0 -1 -2444.35 -2315.69)" fill="#4D4B45"/>
</g>
<g id="Shape" figma:type="vector">
<use xlink:href="#path5_fill" transform="matrix(1 0 0 -1 -2385.7 -2315.69)" fill="#4D4B45"/>
</g>
<g id="Shape" figma:type="vector">
<use xlink:href="#path6_fill" transform="matrix(1 0 0 -1 -2444.28 -2142.79)" fill="#4D4B45"/>
</g>
</g>
</g>
</g>
</g>
<defs>
<path id="path0_fill" fill-rule="evenodd" d="M 218.375 565.199C 173.498 561.625 132.575 545.754 98.7758 518.846C 77.3149 501.714 58.4605 479.589 43.0382 453.418C 31.6996 434.183 20.9257 408.537 14.0182 384.362C 0.463926 336.696 -3.4894 278.152 3.1574 223.391C 9.67387 169.366 26.1388 123.33 52.1178 86.6474C 57.1138 79.5001 68.409 65.9414 74.1435 60.1605C 107.16 26.684 148.127 7.18668 198.174 0.985376C 209.078 -0.328459 241.747 -0.328459 255.084 0.985376C 286.711 4.19113 313.602 10.8654 334.194 20.5352C 339.103 22.8476 343.448 25.1599 344.056 25.7906C 344.186 25.8957 334.238 72.5105 332.587 79.5527L 331.935 82.2855L 329.85 80.9716C 323.855 77.2929 310.909 71.985 300.048 68.6741C 261.818 57.1124 218.896 56.3241 184.706 66.5195C 171.239 70.5661 159.64 75.7689 148.04 82.9687C 132.661 92.5334 121.497 102.466 109.767 117.076C 81.833 151.656 66.1065 198.796 62.6311 258.339C 61.6753 274.736 62.1532 299.699 63.7606 316.936C 68.018 363.288 80.9206 403.492 101.556 434.656C 106.769 442.486 117.717 455.677 124.407 462.141C 148.909 485.685 178.581 499.77 213.9 504.552C 227.715 506.444 249.002 506.549 263.338 504.815C 286.928 501.924 308.172 495.565 325.897 485.948L 330.675 483.373L 331.544 486.894C 332.022 488.786 335.237 501.767 338.669 515.746L 344.881 541.129L 342.318 542.706C 326.288 552.481 298.832 560.732 271.593 563.885C 256.127 565.724 232.146 566.302 218.375 565.199Z"/>
<path id="path1_fill" fill-rule="evenodd" d="M 0 274.591L 0 0L 29.3241 0L 58.6483 0L 58.6483 128.756L 58.6483 257.512L 168.342 257.512L 278.036 257.512L 278.036 128.756L 278.036 0L 307.795 0L 337.553 0L 337.553 274.591L 337.553 549.183L 307.795 549.183L 278.036 549.183L 278.036 434.354L 278.036 319.525L 168.342 319.525L 58.6483 319.525L 58.6483 434.354L 58.6483 549.183L 29.3241 549.183L 0 549.183L 0 274.591Z"/>
<path id="path2_fill" fill-rule="evenodd" d="M 0 76.2024L 0 0L 21.7216 0L 43.4432 0L 43.4432 76.2024L 43.4432 152.405L 21.7216 152.405L 0 152.405L 0 76.2024Z"/>
<path id="path3_fill" fill-rule="evenodd" d="M 0 26.2767L 0 0L 62.9926 0L 125.985 0L 125.985 26.2767L 125.985 52.5534L 62.9926 52.5534L 0 52.5534L 0 26.2767Z"/>
<path id="path4_fill" fill-rule="evenodd" d="M 0.304102 52.1855C 0.130329 52.0279 0 40.2033 0 25.9088L 0 0L 21.7216 0L 43.4432 0L 43.4432 26.2767L 43.4432 52.5534L 22.0257 52.5534C 10.2091 52.5534 0.434432 52.3957 0.304102 52.1855Z"/>
<path id="path5_fill" fill-rule="evenodd" d="M 0.304102 52.1855C 0.130329 52.0279 0 40.2033 0 25.9088L 0 0L 63.2098 0L 126.42 0L 126.333 26.1716L 126.202 52.2906L 63.3836 52.4483C 28.8463 52.5008 0.434432 52.3957 0.304102 52.1855Z"/>
<path id="path6_fill" fill-rule="evenodd" d="M 0.146621 152.3C 0.0162912 151.932 -0.027152 117.562 0.0162912 75.9396L 0.146621 0.262767L 21.7813 0.105107L 43.3726 0L 43.3726 76.4652L 43.3726 152.93L 21.8682 152.93C 5.0557 152.93 0.27695 152.773 0.146621 152.3Z"/>
</defs>
</svg>
