<svg width="25" height="21" viewBox="0 0 25 21" fill="none" xmlns="http://www.w3.org/2000/svg">
<path fill-rule="evenodd" clip-rule="evenodd" d="M23.75 9H23V1.25C23 0.560059 22.43 0 21.74 0H3.25C2.56 0 2 0.560059 2 1.25V7H1.25C0.559998 7 0 7.56006 0 8.25V17.75C0 18.4399 0.559998 19 1.25 19H7.75C8.44 19 9 18.4399 9 17.75V17H10V20H8V21H17V20H15V17H18V17.75C18 18.4399 18.56 19 19.25 19H23.75C24.44 19 25 18.4399 25 17.75V10.25C25 9.56006 24.44 9 23.75 9ZM8 17.75C8 17.8899 7.89001 18 7.75 18H1.25C1.10999 18 1 17.8899 1 17.75V8.25C1 8.11011 1.10999 8 1.25 8H7.75C7.89001 8 8 8.11011 8 8.25V17.75ZM3 7H7.75C8.44 7 9 7.56006 9 8.25V12H18V10.25C18 9.56006 18.56 9 19.25 9H22V1.25C22 1.11011 21.88 1 21.74 1H3.25C3.10999 1 3 1.11011 3 1.25V7ZM14 20H11V17H14V20ZM9 13V16H18V12.99L17.99 13H9ZM24 17.75C24 17.8899 23.89 18 23.75 18H19.25C19.11 18 19 17.8899 19 17.75V10.25C19 10.1101 19.11 10 19.25 10H23.75C23.89 10 24 10.1101 24 10.25V17.75ZM22 16H21V17H22V16ZM4 16H5V17H4V16ZM13 14H12V15H13V14Z" fill="#0E1D25"/>
</svg>
