<svg width="25" height="23" viewBox="0 0 25 23" fill="none" xmlns="http://www.w3.org/2000/svg">
<path fill-rule="evenodd" clip-rule="evenodd" d="M1 13H15V14H1V15.75C1 15.8899 1.10999 16 1.25 16H15V17H8V20H15V21H8H7H5V20H7V17H1.25C0.560059 17 0 16.4399 0 15.75V14V13V1.25C0 0.560059 0.560059 0 1.25 0H20.75C21.4399 0 22 0.560059 22 1.25V8H21V1.25C21 1.11011 20.89 1 20.75 1H1.25C1.10999 1 1 1.11011 1 1.25V13ZM17.48 9H23.52C24.34 9 25 9.65991 25 10.48V21.52C25 22.3401 24.34 23 23.52 23H17.48C16.66 23 16 22.3401 16 21.52V10.48C16 9.65991 16.66 9 17.48 9ZM23.52 22C23.79 22 24 21.78 24 21.52V19H17V21.52C17 21.79 17.22 22 17.48 22H23.52ZM24 18H17V12H24V18ZM17 11H24V10.48C24 10.21 23.78 10 23.52 10H17.48C17.21 10 17 10.22 17 10.48V11ZM20 21H21V20H20V21Z" fill="#0E1D25"/>
</svg>
