<svg width="24" height="24" viewBox="0 0 1050 1200" version="1.1" xmlns="http://www.w3.org/2000/svg" xmlns:xlink="http://www.w3.org/1999/xlink">
<g id="Canvas" transform="translate(491 281)">
<g id="gh-modern">
<use xlink:href="#gh-modern_fill" transform="translate(-500 -313)" fill="rgb(141, 19, 254)"/>
</g>
</g>
<defs>
<path id="gh-modern_fill" d="M 972.8 450.56 c 28.262 0 51.2 22.94 51.2 51.2 v 307.2 c 0 28.258 -22.938 51.2 -51.2 51.2 h -184.32 c -28.262 0 -51.2 -22.942 -51.2 -51.2 v -30.72 h -122.88 v 122.88 h 81.92 v 40.96 h -368.64 v -40.96 h 81.92 v -122.88 h -40.96 v 30.72 c 0 28.258 -22.938 51.2 -51.2 51.2 h -266.24 c -28.262 0 -51.2 -22.942 -51.2 -51.2 v -389.12 c 0 -28.26 22.938 -51.2 51.2 -51.2 h 30.72 v -235.52 c 0 -28.26 22.938 -51.2 51.2 -51.2 h 757.35 c 28.262 0 51.61 22.94 51.61 51.2 v 317.44 h 30.72 Z M 327.68 808.96 v -389.12 c 0 -5.73 -4.505 -10.24 -10.24 -10.24 h -266.24 c -5.735 0 -10.24 4.51 -10.24 10.24 v 389.12 c 0 5.73 4.505 10.24 10.24 10.24 h 266.24 c 5.735 0 10.24 -4.51 10.24 -10.24 Z M 122.88 368.64 h 194.56 c 28.262 0 51.2 22.94 51.2 51.2 v 153.6 h 368.64 v -71.68 c 0 -28.26 22.938 -51.2 51.2 -51.2 h 112.64 v -317.44 c 0 -5.73 -4.915 -10.24 -10.65 -10.24 h -757.35 c -5.735 0 -10.24 4.51 -10.24 10.24 v 235.52 Z M 573.44 901.12 v -122.88 h -122.88 v 122.88 h 122.88 Z M 368.64 614.4 v 122.88 h 368.64 v -123.29 l -0.41 0.41 h -368.23 Z M 983.04 808.96 v -307.2 c 0 -5.73 -4.506 -10.24 -10.24 -10.24 h -184.32 c -5.734 0 -10.24 4.51 -10.24 10.24 v 307.2 c 0 5.73 4.506 10.24 10.24 10.24 h 184.32 c 5.734 0 10.24 -4.51 10.24 -10.24 Z M 901.12 737.28 v 40.96 h -40.96 v -40.96 h 40.96 Z M 163.84 737.28 v 40.96 h 40.96 v -40.96 h -40.96 Z M 532.48 655.36 v 40.96 h -40.96 v -40.96 h 40.96 Z"/>
</defs>
</svg>