<svg width="100" height="98" viewBox="0 0 100 98" version="1.1" xmlns="http://www.w3.org/2000/svg" xmlns:xlink="http://www.w3.org/1999/xlink">
<title>Group Copy</title>
<desc>Created using Figma</desc>
<g id="Canvas" transform="translate(1088 -5261)">
<g id="Group Copy">
<g id="Fill 1">
<use xlink:href="#path0_fill" transform="translate(-1088 5261)" fill="#FF8200"/>
</g>
<g id="Fill 2">
<use xlink:href="#path1_fill" transform="translate(-1071.38 5276.37)" fill="#FF8200"/>
</g>
</g>
</g>
<defs>
<path id="path0_fill" fill-rule="evenodd" d="M 90.6098 56.7909L 100 48.7528L 90.6098 40.716C 89.932 40.1369 89.7145 39.1809 90.074 38.3637L 95.0531 27.053L 83.1029 23.9052C 82.2386 23.677 81.6259 22.9113 81.5962 22.0182L 81.1763 9.663L 69.0361 11.9932C 68.1617 12.1602 67.2787 11.7353 66.8639 10.9437L 61.1254 0L 51.2067 7.3824C 50.4903 7.91572 49.5097 7.91572 48.7911 7.3824L 38.8749 0L 33.1361 10.9437C 32.7213 11.7353 31.8383 12.1602 30.9639 11.9932L 18.8237 9.663L 18.4038 22.0182C 18.3741 22.9113 17.7618 23.677 16.8971 23.9052L 4.94689 27.053L 9.92602 38.3637C 10.2855 39.1809 10.0683 40.1369 9.39017 40.716L 0 48.7528L 9.39017 56.7909C 10.0683 57.3701 10.2855 58.3257 9.92602 59.142L 4.94689 70.4524L 16.8971 73.6014C 17.7618 73.8287 18.3741 74.5957 18.4038 75.4884L 18.8237 87.8424L 30.9639 85.5134C 31.09 85.4913 31.2197 85.4777 31.3455 85.4777C 32.0865 85.4777 32.7817 85.8877 33.1361 86.563L 38.8749 97.507L 48.7911 90.1233C 49.5097 89.59 50.4903 89.59 51.2067 90.1233L 61.1254 97.507L 66.8639 86.563C 67.2787 85.7714 68.1617 85.3468 69.0361 85.5134L 81.1763 87.8424L 81.5962 75.4884C 81.6259 74.5957 82.2386 73.8287 83.1029 73.6014L 95.0531 70.4524L 90.074 59.142C 89.7145 58.3257 89.932 57.3701 90.6098 56.7909ZM 50.0001 86.1845C 29.36 86.1845 12.5703 69.3936 12.5703 48.7534C 12.5703 28.1145 29.36 11.3232 50.0001 11.3232C 70.6403 11.3232 87.4303 28.1145 87.4303 48.7534C 87.4303 69.3936 70.6403 86.1845 50.0001 86.1845Z"/>
<path id="path1_fill" fill-rule="evenodd" d="M 33.3842 0C 14.9757 0 0 14.9744 0 33.3833C 0 51.7931 14.9757 66.7675 33.3842 66.7675C 51.7906 66.7675 66.7688 51.7931 66.7688 33.3833C 66.7688 14.9744 51.7906 0 33.3842 0Z"/>
</defs>
</svg>
