<svg width="719" height="729" viewBox="0 0 719 729" version="1.1" xmlns="http://www.w3.org/2000/svg" xmlns:xlink="http://www.w3.org/1999/xlink" xmlns:figma="http://www.figma.com/figma/ns">
<title>Memory</title>
<desc>Created using Figma</desc>
<g id="Canvas" transform="translate(4412 2723)" figma:type="canvas">
<g id="Memory" figma:type="frame">
<g id="Group" figma:type="frame">
<g id="Layer_2" figma:type="frame">
<g id="banana_1_" figma:type="vector-operation">
<use xlink:href="#path0_fill" transform="translate(-4411.83 -2271.81)" fill="#87A9B2"/>
</g>
<g id="lemon" figma:type="vector-operation">
<use xlink:href="#path1_fill" transform="translate(-4382.02 -2687.59)" fill="#DDDDDD"/>
</g>
<g id="grape" figma:type="vector-operation">
<use xlink:href="#path2_fill" transform="translate(-3939.46 -2310.67)" fill="#DDDDDD"/>
</g>
</g>
<g id="Warstwa_1" figma:type="frame">
<g id="banana" figma:type="vector-operation">
<use xlink:href="#path3_fill" transform="translate(-3973.09 -2722.95)" fill="#87A9B2"/>
</g>
</g>
</g>
</g>
</g>
<defs>
<path id="path0_fill" fill-rule="evenodd" d="M 226.014 23.0829L 200.943 2.62958C 197.128 -0.876526 190.588 -0.876526 186.773 2.62958C 182.958 6.13593 182.958 11.3952 186.773 14.3173L 209.119 32.433L 209.119 39.4455C 209.119 54.6393 205.303 69.8332 198.218 83.8583C 191.133 97.8835 180.777 110.74 167.697 121.259C 154.616 132.362 138.811 140.543 121.915 146.387C 104.474 152.231 86.4884 155.153 67.9576 155.153C 49.4269 155.153 30.8961 152.231 14.0001 146.387C 10.1852 145.218 5.27988 145.803 2.55478 148.725C -0.170314 151.062 -0.715236 155.153 0.91953 158.075L 16.7252 181.45L 18.3604 183.203C 24.901 188.462 31.9859 193.137 39.6163 197.228L 46.1568 208.331L 46.1568 208.915L 58.692 229.369C 58.9635 229.659 59.234 230.095 59.5055 230.53L 59.5103 230.539L 59.5143 230.544C 59.7853 230.98 60.0562 231.416 60.3272 231.706C 78.858 246.9 98.4786 255.081 118.1 255.081C 139.356 255.081 160.611 251.575 180.233 245.147C 199.853 238.719 217.839 228.784 232.554 216.512C 247.815 204.24 259.261 189.631 267.436 173.268C 275.611 156.906 279.972 139.959 279.972 122.427C 279.972 104.896 275.611 87.9489 267.436 71.5864C 259.261 55.808 234.19 28.9267 226.014 23.0829ZM 30.3512 169.178C 42.3414 171.515 54.877 172.684 67.4127 172.684C 88.6686 172.684 109.924 169.178 129.545 162.749C 149.166 156.321 167.152 146.387 181.867 134.115C 187.862 129.44 192.768 124.181 197.673 118.921C 197.673 118.921 197.673 119.506 197.128 119.506C 189.498 134.699 178.052 148.725 163.881 160.412C 149.711 172.1 132.816 181.45 113.739 187.878C 103.929 191.384 93.0284 193.722 82.673 195.475C 76.6778 194.306 71.2276 193.137 65.7774 191.384C 53.7872 187.293 42.8863 181.45 33.0763 173.853L 30.3512 169.178ZM 248.36 166.84C 255.445 152.815 259.261 137.621 259.261 122.427C 259.261 107.234 255.99 92.624 248.36 78.5991C 244.545 71.0021 236.37 61.0676 228.739 52.3019L 228.739 69.8332C 228.739 89.1179 224.379 107.234 215.659 124.765C 206.939 141.712 194.403 157.49 178.052 170.931C 161.702 184.372 142.626 194.891 121.37 201.903C 109.924 205.994 97.9337 208.915 85.9435 210.669C 84.8531 211.253 83.7633 211.253 82.673 211.253C 80.7657 211.545 78.7223 211.691 76.6788 211.837C 74.6349 211.983 72.5904 212.13 70.6827 212.422L 75.588 220.603C 90.3033 232.291 104.474 238.134 118.1 238.134C 136.63 238.134 154.616 235.213 172.057 229.369C 188.953 223.525 204.758 215.344 217.839 204.24C 230.92 193.722 241.275 180.865 248.36 166.84Z"/>
<path id="path1_fill" fill-rule="evenodd" d="M 261.066 61.3599C 256.161 49.6721 249.621 39.1533 240.9 29.8032C 232.18 20.4531 221.28 12.8562 209.834 7.59692C 198.389 2.3374 185.853 0 173.317 0C 160.782 0 148.247 2.3374 136.801 7.59692C 125.355 12.8562 114.455 20.4531 105.735 29.8032C 97.0142 39.1533 90.4741 49.6721 85.5688 61.3599L 84.479 62.5286L 38.1519 12.8562C 34.8818 9.3501 29.9766 9.3501 27.2515 12.8562C 9.81055 31.5564 0 56.6848 0 83.5662C 0 110.448 9.81055 135.576 27.2515 154.276C 42.5122 170.639 62.6777 180.573 83.9336 182.911L 85.5688 182.911L 86.1138 182.911C 87.2017 182.911 88.4258 183.056 89.6499 183.202L 89.6567 183.203L 89.6636 183.204C 90.8872 183.349 92.1108 183.495 93.1992 183.495C 107.37 183.495 120.995 179.989 132.986 174.145C 133.531 174.437 134.212 174.729 134.893 175.022C 135.575 175.314 136.256 175.606 136.801 175.898C 148.247 181.157 160.782 183.495 173.317 183.495C 185.853 183.495 198.389 181.157 209.834 175.898C 221.28 170.639 232.18 163.042 240.9 153.692C 249.621 144.342 256.161 133.823 261.066 122.135L 285.592 97.5913C 287.227 95.8381 288.317 93.5007 288.317 91.7476C 288.317 89.4099 287.227 87.0725 285.592 85.9038L 261.066 61.3599ZM 16.3511 100.513L 36.5166 100.513C 40.877 100.513 44.147 97.0068 44.147 92.3318C 44.147 87.657 40.877 84.1506 36.5166 84.1506L 15.2607 84.1506C 15.2607 64.866 21.2559 46.166 32.7017 31.5564L 78.4834 80.6443L 142.251 149.017C 141.706 149.309 141.162 149.747 140.617 150.185C 140.072 150.624 139.526 151.062 138.981 151.354C 138.981 151.354 138.436 151.354 138.436 151.939C 137.891 152.231 137.482 152.523 137.074 152.815L 137.069 152.818C 136.662 153.11 136.254 153.401 135.711 153.692C 135.711 153.692 135.166 153.692 135.166 154.276C 134.621 154.569 134.211 154.861 133.803 155.153C 133.394 155.445 132.985 155.737 132.441 156.029L 131.896 156.029L 128.625 157.782C 117.725 164.21 105.189 167.133 92.6543 167.133L 92.6543 144.342C 92.6543 139.667 89.3838 136.16 85.0239 136.16C 80.6636 136.16 77.3936 139.667 77.3936 144.342L 77.3936 165.379C 64.8579 162.458 53.4126 156.614 43.6021 148.432L 61.5879 129.148C 64.8579 125.642 64.8579 120.382 61.5879 117.46C 58.3179 113.954 53.4126 113.954 50.6875 117.46L 32.7017 136.745C 23.9814 126.226 18.5308 113.954 16.3511 100.513ZM 246.896 113.954C 247.44 112.785 247.986 111.616 249.076 111.032L 269.787 92.3318L 250.166 73.0474C 249.076 72.4629 248.531 71.2942 247.986 70.1255C 244.17 59.6067 238.175 50.2566 230.545 42.0752C 222.915 33.894 214.194 27.4658 204.384 23.3752C 194.573 19.2844 184.218 16.947 173.862 16.947C 163.507 16.947 153.152 19.2844 143.341 23.3752C 133.531 28.0503 124.811 33.894 117.18 42.0752C 109.55 50.2566 103.555 59.6067 99.7393 70.1255C 99.1943 71.2942 98.6494 72.4629 97.5591 73.0474L 95.3794 74.8005L 159.147 143.173C 160.237 144.342 160.782 145.51 161.327 147.264L 161.327 147.848L 161.327 149.017C 161.327 150.77 160.782 151.938 160.237 153.107C 160.237 153.692 159.692 154.276 159.147 154.861C 158.33 155.445 157.648 156.176 156.967 156.906C 156.286 157.636 155.604 158.367 154.787 158.951L 153.697 160.12C 153.259 160.433 152.86 160.704 152.49 160.955C 151.478 161.643 150.68 162.186 149.881 163.042L 149.336 163.626C 156.967 165.964 164.597 167.133 172.772 167.133C 183.128 167.133 193.483 164.795 203.294 160.704C 213.104 156.029 221.825 150.186 229.455 142.004C 237.085 133.823 243.081 124.473 246.896 113.954Z"/>
<path id="path2_fill" fill-rule="evenodd" d="M 0 170.054C 0 192.845 16.3508 211.545 37.6067 216.22L 37.6067 219.727C 37.6067 242.518 53.9573 261.217 75.2131 265.893L 75.2131 269.399C 75.2131 295.112 96.4692 316.149 122.63 316.149C 148.791 316.149 170.047 295.112 170.047 269.399L 170.047 265.893C 191.303 261.217 207.654 242.518 207.654 219.727L 207.654 216.22C 228.91 211.545 245.26 192.845 245.26 170.054C 245.26 147.264 228.91 128.563 207.654 123.888L 207.654 120.382C 207.654 94.6694 186.398 73.6318 160.237 73.6318C 149.881 73.6318 140.616 77.1381 132.441 82.3974L 132.441 46.166C 132.441 42.6596 132.986 39.1535 134.621 35.6472C 136.256 32.1408 137.891 29.2189 140.616 26.8815C 143.341 24.5439 146.066 22.2065 149.336 21.0378C 155.877 18.1157 163.507 18.1157 170.592 21.0378C 173.862 22.2065 177.133 24.5439 179.313 26.8815C 181.493 28.6347 183.128 30.9721 184.218 33.894C 183.492 35.4509 182.282 37.0078 181.072 38.5646L 181.069 38.5688C 180.463 39.3481 179.858 40.1274 179.313 40.9067C 176.587 43.2441 173.862 45.5815 170.592 46.7504C 165.687 49.0878 162.962 54.3474 165.142 59.6066C 167.322 64.8661 173.317 67.2036 178.223 64.8661C 184.218 62.5285 189.123 59.0224 193.483 54.9316C 197.844 50.2565 201.659 45.5817 203.839 39.7377C 204.384 38.569 204.384 37.4003 204.384 36.2316L 204.384 32.7253C 204.384 31.5566 204.384 30.3876 203.839 28.6347C 201.659 22.7907 197.844 17.5314 193.483 13.4409C 189.123 8.76581 183.673 5.84369 178.223 3.50629C 166.777 -1.16876 153.152 -1.16876 141.706 3.50629C 135.711 5.84369 130.806 9.35004 126.445 13.4409C 122.085 18.1157 118.27 22.7907 116.09 28.6347C 113.91 34.4785 112.275 40.3222 112.275 46.7504L 112.275 82.9819C 104.645 77.7224 94.834 74.2162 84.4785 74.2162C 58.3176 74.2162 37.0615 95.2538 37.0615 120.966L 37.0615 124.473C 16.3508 128.563 0 147.264 0 170.054ZM 57.7725 219.142L 57.7725 215.636C 61.5876 215.052 65.4028 213.299 68.6729 211.545C 68.9456 211.545 69.0818 211.399 69.218 211.253C 69.3542 211.107 69.4905 210.961 69.7629 210.961C 70.0354 210.669 70.4441 210.523 70.8528 210.377C 71.2617 210.231 71.6707 210.084 71.9431 209.792C 72.2156 209.5 72.4883 209.354 72.7607 209.208C 73.0332 209.062 73.3057 208.915 73.5781 208.623C 73.8508 208.331 74.1233 208.185 74.3958 208.039C 74.6682 207.893 74.9407 207.747 75.2131 207.455C 75.7583 206.87 76.3032 206.286 76.8484 206.286C 77.1208 205.994 77.3933 205.848 77.6658 205.702C 77.9382 205.556 78.2107 205.409 78.4834 205.117L 80.1184 203.364C 80.3267 203.141 80.5347 203.003 80.7124 202.885C 81.0002 202.695 81.2085 202.557 81.2085 202.195L 82.8435 200.442C 83.3887 199.858 83.9336 199.273 83.9336 198.689L 84.4785 198.105L 85.0237 198.689C 85.5686 199.273 86.1138 199.858 86.1138 200.442L 87.7488 202.195L 88.8389 203.364L 90.4739 205.117C 90.7463 205.409 91.019 205.556 91.2915 205.702C 91.564 205.848 91.8364 205.994 92.1089 206.286C 92.6541 206.87 93.199 207.455 93.7441 207.455C 94.0166 207.747 94.2891 207.893 94.5615 208.039C 94.834 208.185 95.1064 208.331 95.3792 208.623C 95.6516 208.915 95.9241 209.062 96.1965 209.208C 96.469 209.354 96.7417 209.5 97.0142 209.792C 97.2866 210.084 97.6956 210.231 98.1045 210.377C 98.5132 210.523 98.9219 210.669 99.1943 210.961C 99.4668 210.961 99.603 211.107 99.7393 211.253C 99.8755 211.399 100.012 211.545 100.284 211.545C 103.554 213.299 107.37 214.467 111.185 215.636L 111.185 219.142C 111.185 222.064 110.64 225.57 109.55 228.492C 109.005 230.246 107.915 231.999 106.824 233.752C 106.617 233.974 106.489 234.196 106.379 234.387L 106.378 234.389C 106.2 234.697 106.071 234.921 105.735 234.921C 105.735 234.921 105.735 235.505 105.189 235.505L 104.099 236.674L 103.554 237.258C 103.01 237.842 102.464 238.427 101.374 239.011L 100.829 239.596L 99.7393 240.764C 99.7393 240.764 99.1943 240.764 99.1943 241.349C 94.834 244.271 89.929 246.024 84.4785 246.608L 82.8435 246.608C 70.3081 246.608 57.7725 234.336 57.7725 219.142ZM 108.459 161.289C 108.051 161.435 107.642 161.581 107.37 161.873C 107.22 161.873 107.112 161.917 106.954 161.981C 106.537 162.15 105.778 162.457 103.01 162.457C 99.7393 164.211 95.9241 165.964 92.1089 166.548L 92.1089 170.054C 92.1089 173.561 92.6541 176.483 93.7441 179.404C 94.2891 181.158 95.3792 182.911 96.4692 184.664C 96.8062 184.664 96.9346 184.887 97.1125 185.196C 97.2224 185.386 97.3511 185.61 97.5591 185.833C 98.1042 185.833 98.1042 186.417 98.1042 186.417L 99.1943 187.586L 99.7393 188.17C 100.008 188.458 100.409 188.746 100.811 189.034L 100.814 189.036L 100.817 189.039L 100.82 189.041L 100.823 189.043L 100.827 189.045L 100.83 189.047C 101.239 189.339 101.647 189.631 101.919 189.923L 102.464 190.508L 103.554 191.676C 103.554 192.261 104.099 192.261 104.099 192.261C 108.46 195.183 113.365 196.936 118.815 197.52L 120.45 197.52L 122.085 197.52C 127.535 196.936 132.441 195.183 136.801 192.261C 136.801 191.676 137.346 191.676 137.346 191.676L 138.436 190.508L 138.981 189.923C 140.071 189.339 140.616 188.755 141.161 188.17L 141.706 187.586L 142.796 186.417C 143.341 186.417 143.341 185.833 143.341 185.833C 143.678 185.833 143.807 185.609 143.985 185.301C 144.094 185.11 144.223 184.887 144.431 184.664C 145.521 182.911 146.611 181.158 147.156 179.404C 148.246 176.483 148.791 172.976 148.791 170.054L 148.791 166.548C 144.976 165.379 141.161 164.211 137.891 162.457C 137.618 162.457 137.482 162.311 137.346 162.165C 137.21 162.019 137.073 161.873 136.801 161.873C 136.528 161.581 136.12 161.435 135.711 161.289C 135.302 161.143 134.893 160.997 134.621 160.704C 134.348 160.412 134.076 160.266 133.803 160.12C 133.531 159.974 133.258 159.828 132.986 159.536C 132.713 159.243 132.44 159.097 132.168 158.951C 131.896 158.805 131.623 158.659 131.351 158.367C 130.806 158.367 130.26 157.782 129.716 157.198C 129.443 156.906 129.171 156.76 128.898 156.614C 128.625 156.468 128.353 156.321 128.081 156.029L 126.445 154.276L 125.355 153.107L 123.72 151.354C 123.72 150.77 123.175 150.185 122.63 149.601L 122.085 149.017L 121.54 149.601C 121.54 150.185 120.995 150.77 120.45 151.354L 118.815 153.107C 118.815 153.469 118.607 153.607 118.319 153.797C 118.141 153.915 117.933 154.053 117.725 154.276L 116.09 156.029C 115.818 156.321 115.545 156.468 115.272 156.614C 115 156.76 114.727 156.906 114.455 157.198C 113.91 157.198 113.365 157.782 112.82 158.367C 112.547 158.659 112.275 158.805 112.002 158.951C 111.73 159.097 111.457 159.243 111.185 159.536C 110.912 159.828 110.64 159.974 110.367 160.12C 110.095 160.266 109.822 160.412 109.55 160.704C 109.277 160.997 108.868 161.143 108.459 161.289ZM 122.63 295.696C 107.37 295.696 94.834 283.424 94.834 268.23L 94.834 264.724C 98.6492 264.139 102.464 262.386 105.735 260.633C 106.007 260.633 106.143 260.487 106.28 260.341C 106.416 260.195 106.552 260.049 106.824 260.049C 107.097 259.757 107.506 259.611 107.914 259.465C 108.323 259.319 108.732 259.172 109.005 258.88C 109.277 258.588 109.55 258.442 109.822 258.296C 110.095 258.15 110.367 258.003 110.64 257.711C 110.912 257.419 111.185 257.273 111.458 257.127C 111.73 256.981 112.002 256.835 112.275 256.543C 112.82 255.958 113.365 255.374 113.91 255.374C 114.182 255.082 114.455 254.935 114.727 254.789C 115 254.643 115.272 254.497 115.545 254.205L 117.18 252.452C 117.388 252.229 117.596 252.091 117.774 251.973C 118.062 251.782 118.27 251.644 118.27 251.283L 119.905 249.53C 120.45 248.945 120.995 248.361 120.995 247.777L 121.54 247.193L 122.085 247.777L 122.087 247.778C 122.631 248.362 123.175 248.946 123.175 249.53L 124.81 251.283L 125.9 252.452L 127.535 254.205C 127.808 254.497 128.081 254.643 128.353 254.789C 128.625 254.935 128.898 255.082 129.17 255.374C 129.716 255.958 130.26 256.543 130.806 256.543C 131.078 256.835 131.351 256.981 131.623 257.127C 131.896 257.273 132.168 257.419 132.441 257.711C 132.713 258.003 132.986 258.15 133.258 258.296C 133.531 258.442 133.803 258.588 134.076 258.88C 134.348 259.172 134.757 259.319 135.166 259.465C 135.575 259.611 135.983 259.757 136.256 260.049C 136.528 260.049 136.665 260.195 136.801 260.341C 136.937 260.487 137.073 260.633 137.346 260.633C 140.616 262.386 144.431 263.555 148.246 264.724L 148.246 268.23C 150.427 284.008 137.891 295.696 122.63 295.696ZM 158.602 246.608L 160.237 246.608C 175.498 246.608 188.033 234.336 185.308 219.142L 185.308 215.636C 181.493 214.467 177.677 213.299 174.407 211.545C 174.135 211.545 173.999 211.399 173.862 211.253C 173.726 211.107 173.59 210.961 173.317 210.961C 173.045 210.669 172.636 210.523 172.228 210.377C 171.819 210.231 171.41 210.084 171.137 209.792C 170.865 209.5 170.592 209.354 170.32 209.208C 170.047 209.061 169.775 208.915 169.502 208.623C 169.23 208.331 168.957 208.185 168.685 208.039C 168.412 207.893 168.14 207.747 167.867 207.455C 167.322 207.455 166.777 206.87 166.232 206.286C 165.96 205.994 165.687 205.848 165.415 205.702C 165.142 205.556 164.87 205.409 164.597 205.117L 162.962 203.364L 161.872 202.195L 160.237 200.442C 160.237 199.858 159.692 199.273 159.147 198.689L 158.602 198.105L 158.057 198.689C 158.057 199.273 157.512 199.858 156.967 200.442L 155.332 202.195C 155.332 202.557 155.123 202.695 154.835 202.885C 154.658 203.003 154.45 203.141 154.241 203.364L 152.606 205.117C 152.334 205.409 152.061 205.556 151.789 205.702C 151.516 205.848 151.244 205.994 150.971 206.286C 150.427 206.286 149.881 206.87 149.336 207.455C 149.064 207.747 148.792 207.893 148.519 208.039C 148.247 208.185 147.974 208.331 147.701 208.623C 147.429 208.915 147.156 209.061 146.884 209.208C 146.611 209.354 146.339 209.5 146.066 209.792C 145.794 210.084 145.385 210.231 144.976 210.377C 144.567 210.523 144.159 210.669 143.886 210.961C 143.614 210.961 143.477 211.107 143.341 211.253C 143.205 211.399 143.069 211.545 142.796 211.545C 139.526 213.299 135.711 215.052 131.896 215.636L 131.896 219.142C 131.896 222.649 132.441 225.57 133.531 228.492C 134.076 230.246 135.166 231.999 136.256 233.752C 136.593 233.752 136.721 233.975 136.899 234.283C 137.009 234.474 137.138 234.697 137.346 234.921C 137.891 234.921 137.891 235.505 137.891 235.505L 138.981 236.674L 139.526 237.258C 139.795 237.547 140.199 237.836 140.603 238.126L 140.606 238.128L 140.609 238.13L 140.613 238.132L 140.616 238.134C 141.025 238.427 141.434 238.719 141.706 239.011L 142.251 239.596L 143.341 240.764C 143.341 241.349 143.886 241.349 143.886 241.349C 148.246 244.271 153.152 246.024 158.602 246.608ZM 225.64 170.054C 225.64 185.248 213.104 197.52 197.844 197.52L 196.208 197.52C 190.758 196.936 185.853 195.183 181.493 192.261C 181.493 192.261 180.948 192.261 180.948 191.676L 179.858 190.508L 179.313 189.923C 179.042 189.633 178.637 189.343 178.232 189.053L 178.229 189.051L 178.226 189.049L 178.223 189.047C 177.814 188.755 177.405 188.462 177.133 188.17L 176.588 187.586L 175.498 186.417C 175.498 186.417 175.498 185.833 174.952 185.833C 174.744 185.61 174.616 185.386 174.506 185.196C 174.328 184.887 174.199 184.664 173.862 184.664L 173.861 184.662C 172.771 182.909 171.682 181.157 171.137 179.404C 170.047 176.483 169.502 173.561 169.502 170.054L 169.502 166.548C 170.32 166.256 171.137 166.11 171.954 165.964C 172.772 165.818 173.59 165.672 174.407 165.379L 174.952 165.379C 175.771 165.087 176.452 164.795 177.134 164.502L 177.138 164.5C 177.818 164.209 178.498 163.917 179.313 163.626C 179.585 163.626 179.721 163.48 179.858 163.334C 179.994 163.188 180.13 163.042 180.403 163.042L 183.673 161.289C 184.218 161.289 184.763 160.704 184.763 160.704C 185.308 160.412 185.717 160.12 186.126 159.828C 186.534 159.535 186.943 159.243 187.488 158.951C 187.76 158.659 188.033 158.513 188.305 158.367C 188.578 158.221 188.851 158.075 189.123 157.782C 189.396 157.49 189.804 157.198 190.213 156.906C 190.622 156.614 191.031 156.321 191.303 156.029C 191.576 155.737 191.848 155.591 192.121 155.445C 192.393 155.299 192.666 155.153 192.938 154.861C 193.103 154.684 193.318 154.507 193.553 154.313C 194.094 153.868 194.738 153.338 195.118 152.523C 195.327 152.3 195.535 152.162 195.712 152.044C 196 151.853 196.208 151.716 196.208 151.354C 196.481 150.77 196.89 150.332 197.298 149.893L 197.301 149.891C 197.708 149.454 198.116 149.016 198.388 148.432C 198.388 148.14 198.525 147.994 198.661 147.848C 198.797 147.702 198.933 147.556 198.933 147.264C 199.478 146.679 199.887 145.949 200.296 145.218C 200.705 144.488 201.114 143.757 201.659 143.173C 215.284 144.926 225.64 156.029 225.64 170.054ZM 188.033 120.382C 188.033 105.188 175.498 92.9164 160.237 92.9164C 144.976 92.9164 132.986 105.188 131.351 120.382C 131.351 123.888 131.896 126.81 132.986 129.732C 133.531 131.485 134.62 133.237 135.709 134.989L 135.711 134.992C 136.048 134.992 136.176 135.215 136.354 135.523C 136.464 135.714 136.593 135.937 136.801 136.16C 137.346 136.16 137.346 136.745 137.346 136.745L 138.436 137.914L 138.981 138.498C 139.253 138.79 139.662 139.082 140.071 139.374C 140.48 139.667 140.888 139.959 141.161 140.251L 141.706 140.835L 142.796 142.004C 142.796 142.589 143.341 142.589 143.341 142.589C 147.701 145.51 152.606 147.264 158.057 147.848L 159.692 147.848L 161.327 147.848C 166.777 147.264 171.682 145.51 176.042 142.589C 176.042 142.004 176.588 142.004 176.588 142.004L 177.677 140.835L 178.223 140.251C 179.313 139.667 179.858 139.082 180.403 138.498L 180.948 137.914L 182.038 136.745C 182.583 136.745 182.583 136.16 182.583 136.16C 182.919 136.16 183.048 135.937 183.226 135.629C 183.336 135.438 183.465 135.215 183.673 134.992C 184.763 133.238 185.853 131.485 186.398 129.732C 187.488 126.81 188.033 123.304 188.033 120.382ZM 85.5686 92.9164C 100.829 92.9164 113.365 105.188 113.365 120.382C 113.365 123.304 112.82 126.81 111.73 129.732C 111.185 131.485 110.095 133.238 109.005 134.992C 108.797 135.215 108.668 135.438 108.558 135.629C 108.38 135.937 108.251 136.16 107.915 136.16C 107.915 136.16 107.915 136.745 107.37 136.745L 106.28 137.914L 105.735 138.498L 105.733 138.499C 105.188 139.083 104.644 139.667 103.554 140.251L 103.01 140.835L 101.919 142.004C 101.919 142.004 101.374 142.004 101.374 142.589C 97.0142 145.51 92.1089 147.264 86.6587 147.848L 85.0237 147.848L 83.3887 147.848C 77.9385 147.264 73.0332 145.51 68.6729 142.589C 68.6729 142.589 68.1279 142.589 68.1279 142.004L 67.0378 140.835L 66.4929 140.251C 66.2202 139.959 65.8113 139.666 65.4023 139.374L 65.3972 139.371C 64.9905 139.08 64.584 138.789 64.3127 138.498L 63.7678 137.914L 62.6777 136.745C 62.6777 136.745 62.6777 136.16 62.1326 136.16C 61.9243 135.937 61.7957 135.714 61.6858 135.523C 61.5081 135.215 61.3794 134.992 61.0427 134.992C 59.9526 133.238 58.8625 131.485 58.3176 129.732C 57.2275 126.81 56.6824 123.888 56.6824 120.382C 57.7725 105.188 70.3081 92.9164 85.5686 92.9164ZM 46.3269 147.264C 45.2371 146.095 44.147 144.342 43.6018 143.173C 30.5212 144.926 20.166 156.029 19.6208 170.054C 19.6208 185.248 32.1565 197.52 47.417 197.52L 49.0522 197.52C 54.5024 196.936 59.4075 195.183 63.7678 192.261C 63.7678 191.676 64.3127 191.676 64.3127 191.676L 65.4028 190.508L 65.9478 189.923C 67.0378 189.339 67.583 188.755 68.1279 188.17L 68.6729 187.586L 69.7629 186.417C 70.3081 186.417 70.3081 185.833 70.3081 185.833C 70.6448 185.833 70.7734 185.61 70.9512 185.301C 71.0613 185.111 71.1899 184.887 71.3982 184.664L 71.3997 184.662C 72.489 182.909 73.5784 181.157 74.1233 179.404C 75.2131 176.483 75.7583 172.976 75.7583 170.054L 75.7583 166.548C 74.1233 166.548 72.488 165.964 70.853 165.379L 70.3081 165.379C 68.6729 164.795 67.0378 164.211 65.9478 163.626C 65.6753 163.626 65.5391 163.48 65.4028 163.334C 65.2666 163.188 65.1304 163.042 64.8579 163.042L 61.5876 161.289C 61.5876 161.289 61.0427 160.704 60.4976 160.704C 59.9524 160.412 59.5435 160.12 59.1345 159.828C 58.7261 159.535 58.3174 159.243 57.7725 158.951C 57.5 158.659 57.2275 158.513 56.9551 158.367C 56.6826 158.221 56.4099 158.075 56.1375 157.782C 55.865 157.49 55.4563 157.198 55.0476 156.906C 54.6387 156.614 54.23 156.321 53.9573 156.029C 53.4124 156.029 52.8672 155.445 52.3223 154.861L 50.1421 152.523C 49.8054 152.523 49.6768 152.3 49.4988 151.991C 49.3889 151.801 49.2605 151.577 49.0522 151.354C 48.7798 150.77 48.3708 150.332 47.9622 149.893C 47.5535 149.455 47.1445 149.017 46.8721 148.432C 46.8721 148.14 46.7358 147.994 46.5996 147.848C 46.4631 147.702 46.3269 147.556 46.3269 147.264Z"/>
<path id="path3_fill" fill-rule="evenodd" d="M 226.014 23.0829L 200.943 2.62958C 197.128 -0.876526 190.588 -0.876526 186.773 2.62958C 182.957 6.13593 182.957 11.3954 186.773 14.3173L 209.119 32.433L 209.119 39.4455C 209.119 54.6393 205.303 69.8332 198.218 83.8583C 191.133 97.8835 180.777 110.74 167.697 121.259C 154.616 132.362 138.811 140.543 121.915 146.387C 104.474 152.231 86.4882 155.153 67.9575 155.153C 49.4267 155.153 30.896 152.231 14.0002 146.387C 10.185 145.218 5.27999 145.803 2.55489 148.725C -0.170207 151.062 -0.715373 155.153 0.919637 158.075L 16.7253 181.45L 18.3606 183.203C 24.9008 188.462 31.986 193.137 39.6164 197.228L 46.1567 208.331L 46.1567 208.915L 58.6921 229.369C 58.9641 229.661 59.236 230.098 59.508 230.535L 59.5095 230.537C 59.7822 230.976 60.0546 231.414 60.3274 231.706C 78.8581 246.9 98.479 255.081 118.1 255.081C 139.356 255.081 160.612 251.575 180.232 245.147C 199.853 238.719 217.839 228.784 232.555 216.512C 247.815 204.24 259.261 189.631 267.436 173.268C 275.611 156.906 279.972 139.959 279.972 122.427C 279.972 104.896 275.611 87.9489 267.436 71.5864C 259.806 55.2238 234.735 28.9267 226.014 23.0829ZM 30.351 168.593C 42.3415 170.931 54.8769 172.1 67.4126 172.1C 88.6684 172.1 109.924 168.593 129.545 162.165C 149.166 155.737 167.152 145.803 181.867 133.531C 187.641 129.029 192.403 123.985 197.128 118.921C 189.498 134.115 178.052 148.14 163.882 159.828C 149.711 171.515 132.815 180.865 113.739 187.293C 103.929 190.8 93.0285 193.137 82.6733 194.891C 76.6779 193.722 71.2277 192.553 65.7775 190.8C 53.7871 186.709 42.8864 180.865 33.0761 173.268L 30.351 168.593ZM 197.128 118.921L 197.669 118.341L 197.673 118.337C 197.673 118.337 197.673 118.921 197.128 118.921ZM 248.905 166.84C 255.99 152.815 259.806 137.621 259.806 122.427C 259.806 106.649 256.536 92.0397 248.905 77.4301C 245.09 69.8332 236.915 59.8989 229.284 51.1332L 229.284 69.8332C 229.284 89.1179 224.924 107.234 216.204 124.765C 207.483 141.712 194.948 157.49 178.597 170.931C 162.247 184.372 143.171 194.891 121.915 201.903C 110.469 205.994 98.479 208.915 86.4882 210.669C 85.3984 211.253 84.3083 211.253 83.2182 211.253C 81.311 211.545 79.2675 211.691 77.2241 211.837C 75.1799 211.983 73.1357 212.13 71.2277 212.422L 76.133 220.603C 90.8486 232.291 105.019 238.134 118.645 238.134C 137.175 238.134 155.161 235.213 172.602 229.369C 189.498 223.525 205.303 215.344 218.384 204.24C 231.465 193.722 241.82 180.865 248.905 166.84Z"/>
</defs>
</svg>
