<svg width="1751" height="532" viewBox="0 0 1751 532" version="1.1" xmlns="http://www.w3.org/2000/svg" xmlns:xlink="http://www.w3.org/1999/xlink" xmlns:figma="http://www.figma.com/figma/ns">
  <title>Group</title>
  <desc>Created using Figma</desc>
  <g id="Canvas" transform="translate(4544 3755)" figma:type="canvas">
    <g id="Group" figma:type="frame">
      <g id="Vector" figma:type="vector">
        <use xlink:href="#path0_fill" transform="matrix(0.1 0 0 -0.1 -4544 -3223)" fill="#095BA5"/>
      </g>
    </g>
  </g>
  <defs>
    <path
      id="path0_fill"
      d="M 15925.4 3687.44C 15787.3 3513.03 15010.5 2175.82 15010.5 2113.03C 15010.5 2080.47 15148.5 2066.52 15626.6 2050.24L 16088.2 2033.96L 16073.8 2194.42C 16067.6 2282.8 16053.2 2445.59 16042.8 2554.89C 16032.5 2664.19 16016.1 2940.93 16009.9 3171.17C 16001.6 3399.07 15989.3 3622.33 15981 3664.19L 15968.7 3740.93L 15925.4 3687.44ZM 11752.7 3408.38C 11542.5 3089.77 11070.6 2299.08 10992.3 2129.31C 10965.5 2068.84 10949 2013.03 10957.3 2001.4C 10967.6 1992.1 11210.7 1980.47 11501.3 1975.82L 12028.8 1966.52L 12014.4 2740.93C 12002 3517.68 11991.7 3692.1 11958.7 3692.1C 11950.5 3692.1 11857.8 3564.19 11752.7 3408.38ZM 17510 454.195C 17479.9 386.986 17449.8 317.916 17419.7 247.219C 17384.5 163.731 17350.9 81.4051 17319.2 0.70755C 17300.2 0.00987703 17280.7 -0.223135 17260.3 0.241981C 17251.4 0.474538 17244.4 0.474993 17238.4 0.70755C 17207.9 1.63778 17192.5 2.10222 17152.5 4.66035C 17115.8 6.98593 17066.1 8.14894 16971.4 10.7071C 16798.1 15.1257 16544.8 17.4513 16526.9 17.6838L 16066.5 17.6838L 16041 222.335C 16028.2 333.962 16007 506.055 15994.2 606.055L 15970.9 785.124L 14971.7 780.473L 13974.6 773.496L 13781.5 396.753L 13588.5 17.6838L 11880.6 17.6838L 11880.6 785.124L 10900.4 780.473L 9920.17 773.496L 9697.42 392.102L 9474.67 10.7071L 8114.67 24.6605C 6727.26 38.614 6453.41 52.5675 6177.7 133.963C 5976.17 194.428 5857.27 261.869 5647.3 436.288C 5360.87 671.171 5201.79 940.938 5123.28 1320.01C 5095.67 1459.54 5057.55 2031.63 5049.1 2431.63C 5047.04 2622.33 4960.09 2331.63 4603.6 936.287C 4484.7 475.823 4385.18 80.4744 4378.79 57.2186C 4366.01 15.3582 4340.67 13.0327 3844.06 26.9861C 3555.58 36.2884 3222.38 47.9163 3103.68 54.893L 2889.38 68.8465L 2662.3 675.822C 2197.64 1922.33 1970.76 2506.05 1930.38 2559.54C 1907.09 2589.77 1631.18 1529.31 1291.79 106.056L 1270.57 17.6838L 636.521 17.6838C 135.794 17.6838 0 24.6605 0 47.9163C 0 80.4744 114.57 547.915 610.97 2540.94C 808.376 3333.96 975.903 4010.7 984.352 4043.26C 994.861 4099.07 988.679 4106.05 931.394 4120C 895.333 4126.98 814.764 4133.96 755.212 4133.96C 549.358 4133.96 549.358 4129.3 687.418 4647.91C 753.152 4896.74 818.885 5145.58 835.988 5203.72L 863.6 5308.37L 1659.2 5315.35C 2280.88 5320 2461.19 5313.02 2478.08 5292.09C 2488.59 5275.81 2666.84 4826.98 2874.75 4296.75C 3379.6 2999.07 3649.13 2343.26 3678.8 2343.26C 3697.96 2343.26 4160.36 4068.84 4145.53 4085.12C 4141.2 4089.77 4045.79 4103.72 3931.22 4115.35C 3816.65 4126.98 3718.98 4140.93 3716.92 4145.58C 3712.59 4150.23 3774.21 4413.02 3854.78 4731.63L 4003.35 5308.37L 4866.74 5315.35L 5732.4 5320L 5717.56 5257.21C 5711.18 5220 5622.16 4882.79 5522.42 4506.05C 5335.73 3794.42 5255.16 3436.28 5280.51 3436.28C 5288.96 3436.28 5335.73 3517.68 5384.36 3617.68C 5587.95 4040.93 5938.05 4468.84 6311.43 4759.54C 6549.02 4943.26 6922.4 5143.26 7141.03 5203.72C 7357.39 5266.51 7930.24 5294.42 8914.59 5296.74C 9650.85 5296.74 9759.03 5287.44 9759.03 5215.35C 9759.03 5185.12 9489.5 4103.72 9364.42 3629.31L 9332.69 3506.05L 8728.11 3506.05C 8397.18 3506.05 8125.59 3508.38 8125.59 3513.03C 8125.59 3515.35 8140.42 3606.05 8157.32 3715.35C 8174.22 3824.65 8189.05 3957.21 8189.05 4010.7C 8189.05 4096.75 8182.67 4110.7 8133.83 4124.65C 7987.53 4166.51 7669.16 4080.47 7450.74 3943.26C 7179.15 3773.49 6835.44 3333.96 6682.75 2959.54C 6551.29 2640.93 6506.57 2429.31 6504.51 2133.96C 6504.51 1831.63 6536.24 1708.38 6674.3 1501.4C 6754.87 1382.8 6956.4 1222.33 7081.68 1175.82C 7134.64 1157.22 7410.56 1145.59 7955.79 1140.94L 8751.39 1131.64L 8849.07 1301.4C 8904.29 1394.43 9205.55 1906.05 9519.38 2436.28C 10192 3571.17 10459.2 4038.61 10459.2 4078.14C 10459.2 4103.72 10410.4 4117.68 10228 4138.61C 10121.9 4152.56 10124.2 4192.09 10270.5 4766.51L 10408.3 5308.37L 13079.3 5308.37L 13115.3 4610.7C 13223.5 2445.59 13270.3 1803.73 13321.2 1810.7C 13327.6 1810.7 13397.6 1926.98 13473.9 2071.17C 13550.3 2215.35 13840.9 2722.33 14116.8 3199.07C 14392.5 3675.82 14613.2 4075.82 14609.1 4085.12C 14602.7 4096.75 14520.1 4117.68 14426.7 4133.96C 14295.2 4157.21 14256.9 4171.16 14256.9 4201.4C 14259 4222.33 14318.5 4480.47 14392.7 4773.49L 14526.4 5308.37L 14906.2 5301.4C 15116.2 5299.07 15708.2 5289.77 16223.8 5282.79L 17163.6 5268.84L 17172.1 5194.42C 17188.1 4944.65 17244.6 4058.37 17259 3831.63C 17353 2355.12 17396 1665.59 17486.9 697.682C 17496.6 592.799 17504.8 507.218 17510 454.195Z"/>
  </defs>
</svg>
