<svg width="687" height="357" viewBox="0 0 687 357" version="1.1" xmlns="http://www.w3.org/2000/svg" xmlns:xlink="http://www.w3.org/1999/xlink" xmlns:figma="http://www.figma.com/figma/ns">
  <title>Group</title>
  <desc>Created using Figma</desc>
  <g id="Canvas" transform="translate(2149 3699)" figma:type="canvas">
    <g id="Group" figma:type="frame">
      <g id="office-logo" figma:type="frame">
        <g id="office-Group" figma:type="frame">
          <g id="office-Rectangle-Clipped" figma:type="frame">
            <g id="office-Rectangle" figma:type="frame">
              <g id="office-path-1" figma:type="vector">
                <use xlink:href="#path0_stroke" transform="translate(-2145 -3695)" fill="#448AFF"/>
              </g>
            </g>
          </g>
          <g id="office-The-Office" figma:type="frame">
            <g id="office-The" figma:type="text">
              <use xlink:href="#path1_fill" transform="translate(-2117 -3606)" fill="#448AFF"/>
            </g>
            <g id="office-Office" figma:type="text">
              <use xlink:href="#path2_fill" transform="translate(-2117 -3518)" fill="#448AFF"/>
            </g>
          </g>
          <g id="office-Office-man" figma:type="frame">
            <g id="office-Combined-Shape" figma:type="vector">
              <use xlink:href="#path3_fill" transform="translate(-1725 -3649)" fill="#448AFF"/>
            </g>
            <g id="office-Path-2" figma:type="vector">
              <use xlink:href="#path4_fill" transform="translate(-1773 -3610)" fill="#448AFF"/>
              <use xlink:href="#path5_stroke" transform="translate(-1773 -3610)" fill="#448AFF"/>
            </g>
            <g id="office-Path-3" figma:type="frame">
              <g id="office-path-3-link" figma:type="frame">
                <g id="office-path-3" figma:type="vector">
                  <use xlink:href="#path6_fill" transform="translate(-1732 -3579)" fill="#448AFF"/>
                </g>
              </g>
            </g>
          </g>
          <g id="office-Sitting-man" figma:type="frame">
            <g id="office-Fill-2" figma:type="vector">
              <use xlink:href="#path7_fill" transform="translate(-1547 -3599)" fill="#448AFF"/>
            </g>
            <g id="office-Rectangle-Clipped" figma:type="frame">
              <g id="office-Rectangle" figma:type="frame">
                <g id="office-path-5" figma:type="vector">
                  <use xlink:href="#path8_stroke" transform="translate(-1789 -3681)" fill="#448AFF"/>
                </g>
              </g>
            </g>
            <g id="office-Path-4" figma:type="vector">
              <use xlink:href="#path9_fill" transform="translate(-1548 -3557)" fill="#448AFF"/>
            </g>
            <g id="office-Path-5" figma:type="vector">
              <use xlink:href="#path10_fill" transform="translate(-1568 -3544)" fill="#448AFF"/>
            </g>
            <g id="office-Path-6" figma:type="vector">
              <use xlink:href="#path11_fill" transform="translate(-1607.18 -3545.02)" fill="#448AFF"/>
            </g>
            <g id="office-Path-7" figma:type="vector">
              <use xlink:href="#path12_fill" transform="translate(-1611 -3479)" fill="#448AFF"/>
            </g>
            <g id="office-Path-8" figma:type="vector">
              <use xlink:href="#path13_fill" transform="translate(-1669 -3482)" fill="#448AFF"/>
            </g>
          </g>
        </g>
      </g>
    </g>
  </g>
  <defs>
    <path
      id="path0_stroke"
      d="M 23 4L 656 4L 656 -4L 23 -4L 23 4ZM 656 4C 666.493 4 675 12.5066 675 23L 683 23C 683 8.08831 670.912 -4 656 -4L 656 4ZM 675 23L 675 326L 683 326L 683 23L 675 23ZM 675 326C 675 336.493 666.493 345 656 345L 656 353C 670.912 353 683 340.912 683 326L 675 326ZM 656 345L 23 345L 23 353L 656 353L 656 345ZM 23 345C 12.5066 345 4 336.493 4 326L -4 326C -4 340.912 8.08831 353 23 353L 23 345ZM 4 326L 4 23L -4 23L -4 326L 4 326ZM 4 23C 4 12.5066 12.5066 4 23 4L 23 -4C 8.08831 -4 -4 8.08831 -4 23L 4 23Z"/>
    <path
      id="path1_fill"
      d="M 53.877 29.6943L 34.2773 29.6943L 34.2773 83L 21.0938 83L 21.0938 29.6943L 1.75781 29.6943L 1.75781 19.0156L 53.877 19.0156L 53.877 29.6943ZM 72.9932 40.6367C 76.3623 36.5938 80.5957 34.5723 85.6934 34.5723C 96.0059 34.5723 101.235 40.5635 101.382 52.5459L 101.382 83L 88.6816 83L 88.6816 52.8975C 88.6816 50.1729 88.0957 48.166 86.9238 46.877C 85.752 45.5586 83.8037 44.8994 81.0791 44.8994C 77.3584 44.8994 74.6631 46.335 72.9932 49.2061L 72.9932 83L 60.293 83L 60.293 15.5L 72.9932 15.5L 72.9932 40.6367ZM 132.847 83.8789C 125.874 83.8789 120.19 81.7402 115.796 77.4629C 111.431 73.1855 109.248 67.4873 109.248 60.3682L 109.248 59.1377C 109.248 54.3623 110.171 50.0996 112.017 46.3496C 113.862 42.5703 116.47 39.6699 119.839 37.6484C 123.237 35.5977 127.104 34.5723 131.44 34.5723C 137.944 34.5723 143.057 36.623 146.777 40.7246C 150.527 44.8262 152.402 50.6416 152.402 58.1709L 152.402 63.3564L 122.124 63.3564C 122.534 66.4619 123.765 68.9521 125.815 70.8271C 127.896 72.7021 130.518 73.6396 133.682 73.6396C 138.574 73.6396 142.397 71.8672 145.151 68.3223L 151.392 75.3096C 149.487 78.0049 146.909 80.1143 143.657 81.6377C 140.405 83.1318 136.802 83.8789 132.847 83.8789ZM 131.396 44.8555C 128.877 44.8555 126.826 45.7051 125.244 47.4043C 123.691 49.1035 122.695 51.5352 122.256 54.6992L 139.922 54.6992L 139.922 53.6885C 139.863 50.876 139.102 48.708 137.637 47.1846C 136.172 45.6318 134.092 44.8555 131.396 44.8555Z"/>
    <path
      id="path2_fill"
      d="M 71.2207 64.6709C 71.2207 72.3695 69.86 79.1191 67.1387 84.9199C 64.4173 90.7207 60.5143 95.1966 55.4297 98.3477C 50.3809 101.499 44.5801 103.074 38.0273 103.074C 31.5462 103.074 25.7633 101.517 20.6787 98.4014C 15.5941 95.2861 11.6553 90.846 8.8623 85.0811C 6.06934 79.2803 4.65495 72.6201 4.61914 65.1006L 4.61914 61.2334C 4.61914 53.5348 5.99772 46.7673 8.75488 40.9307C 11.5479 35.0583 15.4688 30.5645 20.5176 27.4492C 25.6022 24.2982 31.403 22.7227 37.9199 22.7227C 44.4368 22.7227 50.2197 24.2982 55.2686 27.4492C 60.3532 30.5645 64.2741 35.0583 67.0312 40.9307C 69.8242 46.7673 71.2207 53.5169 71.2207 61.1797L 71.2207 64.6709ZM 54.8926 61.126C 54.8926 52.9261 53.4245 46.6956 50.4883 42.4346C 47.5521 38.1735 43.3626 36.043 37.9199 36.043C 32.513 36.043 28.3415 38.1556 25.4053 42.3809C 22.4691 46.5703 20.9831 52.7292 20.9473 60.8574L 20.9473 64.6709C 20.9473 72.6559 22.4154 78.8506 25.3516 83.2549C 28.2878 87.6592 32.513 89.8613 38.0273 89.8613C 43.4342 89.8613 47.5879 87.7487 50.4883 83.5234C 53.3887 79.2624 54.8568 73.0677 54.8926 64.9395L 54.8926 61.126ZM 86.1523 102L 86.1523 55.2715L 77.5049 55.2715L 77.5049 43.8848L 86.1523 43.8848L 86.1523 38.9434C 86.1523 32.4264 88.0143 27.3776 91.7383 23.7969C 95.498 20.1803 100.744 18.3721 107.476 18.3721C 109.624 18.3721 112.256 18.7301 115.371 19.4463L 115.21 31.4775C 113.921 31.1553 112.345 30.9941 110.483 30.9941C 104.647 30.9941 101.729 33.7334 101.729 39.2119L 101.729 43.8848L 113.276 43.8848L 113.276 55.2715L 101.729 55.2715L 101.729 102L 86.1523 102ZM 125.093 102L 125.093 55.2715L 116.445 55.2715L 116.445 43.8848L 125.093 43.8848L 125.093 41.1992C 125.164 33.8945 127.402 28.2728 131.807 24.334C 136.247 20.3594 142.495 18.3721 150.552 18.3721C 155.386 18.3721 161.258 19.4284 168.169 21.541L 165.913 34.3779C 162.404 33.3395 159.683 32.6771 157.749 32.3906C 155.815 32.0684 153.739 31.9072 151.519 31.9072C 144.285 31.9072 140.669 35.112 140.669 41.5215L 140.669 43.8848L 152.109 43.8848L 152.109 55.2715L 140.669 55.2715L 140.669 102L 125.093 102ZM 175.42 102L 159.844 102L 159.844 43.8848L 175.42 43.8848L 175.42 102ZM 212.427 90.5596C 215.291 90.5596 217.619 89.7718 219.409 88.1963C 221.2 86.6208 222.131 84.526 222.202 81.9121L 236.758 81.9121C 236.722 85.8509 235.648 89.4674 233.535 92.7617C 231.423 96.0202 228.522 98.5625 224.834 100.389C 221.182 102.179 217.135 103.074 212.695 103.074C 204.388 103.074 197.835 100.442 193.037 95.1787C 188.239 89.8792 185.84 82.5745 185.84 73.2646L 185.84 72.2441C 185.84 63.2923 188.221 56.1488 192.983 50.8135C 197.746 45.4782 204.281 42.8105 212.588 42.8105C 219.857 42.8105 225.675 44.8874 230.044 49.041C 234.448 53.1589 236.686 58.6553 236.758 65.5303L 222.202 65.5303C 222.131 62.5225 221.2 60.0876 219.409 58.2256C 217.619 56.3278 215.256 55.3789 212.319 55.3789C 208.703 55.3789 205.964 56.7038 204.102 59.3535C 202.275 61.9674 201.362 66.2285 201.362 72.1367L 201.362 73.748C 201.362 79.7279 202.275 84.0247 204.102 86.6387C 205.928 89.2526 208.703 90.5596 212.427 90.5596ZM 272.368 103.074C 263.846 103.074 256.899 100.46 251.528 95.2324C 246.193 90.0046 243.525 83.04 243.525 74.3389L 243.525 72.835C 243.525 66.9984 244.653 61.7884 246.909 57.2051C 249.165 52.5859 252.352 49.041 256.47 46.5703C 260.623 44.0638 265.35 42.8105 270.649 42.8105C 278.599 42.8105 284.847 45.3171 289.395 50.3301C 293.978 55.3431 296.27 62.4508 296.27 71.6533L 296.27 77.9912L 259.263 77.9912C 259.764 81.7868 261.268 84.8304 263.774 87.1221C 266.317 89.4137 269.521 90.5596 273.389 90.5596C 279.368 90.5596 284.041 88.3932 287.407 84.0605L 295.034 92.6006C 292.707 95.8949 289.556 98.473 285.581 100.335C 281.606 102.161 277.202 103.074 272.368 103.074ZM 270.596 55.3789C 267.516 55.3789 265.01 56.4173 263.076 58.4941C 261.178 60.571 259.961 63.543 259.424 67.4102L 281.016 67.4102L 281.016 66.1748C 280.944 62.7373 280.013 60.0876 278.223 58.2256C 276.432 56.3278 273.89 55.3789 270.596 55.3789Z"/>
    <path id="path3_fill" fill-rule="evenodd" d="M 33.5 17.25C 33.5 7.71937 26.0044 0 16.75 0C 7.49562 0 0 7.71937 0 17.25C 0 26.7806 7.49562 34.5 16.75 34.5C 26.0044 34.5 33.5 26.7806 33.5 17.25Z"/>
    <path
      id="path4_fill"
      fill-rule="evenodd"
      d="M 54.7253 189C 54.7253 189 50.7516 189.468 48 187C 45.1765 184.468 44 174 44 174L 43 159L 3.9192e-23 159L 1 98L 16 97C 16 97 15 87 19 86C 23 85 23 76 23 76C 23 76 24 26 24 21C 24 16 29 9 29 9C 29 9 31 0 65 0C 83.5631 0 90.1959 0.481174 97 4C 99.1189 5.0958 103.058 6.57586 105 10C 108.243 15.7197 109 24 109 24C 109 24 111 38.7734 111 48C 111 56.4401 109 77 109 77L 107 88C 107 88 103.455 89.8589 102 90C 99.7922 90.2142 96.2484 88.7453 96 88C 94 82 93 72 93 72L 93 33L 89 34L 87 180C 87 180 89 189 79 189C 69 189 70 178 70 178L 68 98L 67 96L 65 99L 62 179C 62 179 62.3215 183.186 60 186C 58.9465 187.277 59.7928 187.253 58 188C 57.18 188.342 52.9995 188.875 52 189"/>
    <path
      id="path5_stroke"
      d="M 48 187L 48.3338 186.628L 48.3338 186.628L 48 187ZM 44 174L 43.5011 174.033L 43.5019 174.045L 43.5031 174.056L 44 174ZM 43 159L 43.4989 158.967L 43.4678 158.5L 43 158.5L 43 159ZM 3.9192e-23 159L -0.499933 158.992L -0.508264 159.5L 3.9192e-23 159.5L 3.9192e-23 159ZM 1 98L 0.96674 97.5011L 0.50761 97.5317L 0.500067 97.9918L 1 98ZM 16 97L 16.0333 97.4989L 16.5489 97.4645L 16.4975 96.9502L 16 97ZM 23 76L 22.5 75.99L 22.5 76L 23 76ZM 29 9L 29.4069 9.29062L 29.466 9.20781L 29.4881 9.10847L 29 9ZM 97 4L 96.7703 4.44412L 97 4ZM 105 10L 104.565 10.2466L 104.565 10.2466L 105 10ZM 109 24L 108.502 24.0455L 108.503 24.0563L 108.505 24.0671L 109 24ZM 109 77L 109.492 77.0894L 109.496 77.069L 109.498 77.0484L 109 77ZM 107 88L 107.232 88.4428L 107.448 88.3295L 107.492 88.0894L 107 88ZM 102 90L 101.952 89.5023L 101.952 89.5023L 102 90ZM 96 88L 95.5257 88.1581L 95.5257 88.1581L 96 88ZM 93 72L 92.5 72L 92.5 72.0249L 92.5025 72.0498L 93 72ZM 93 33L 93.5 33L 93.5 32.3596L 92.8787 32.5149L 93 33ZM 89 34L 88.8787 33.5149L 88.5053 33.6083L 88.5 33.9932L 89 34ZM 87 180L 86.5 179.993L 86.4992 180.052L 86.5119 180.108L 87 180ZM 70 178L 70.4979 178.045L 70.5006 178.016L 70.4998 177.988L 70 178ZM 68 98L 68.4998 97.9875L 68.4971 97.8761L 68.4472 97.7764L 68 98ZM 67 96L 67.4472 95.7764L 67.0619 95.0058L 66.584 95.7226L 67 96ZM 65 99L 64.584 98.7226L 64.5056 98.8401L 64.5004 98.9813L 65 99ZM 62 179L 61.5004 178.981L 61.4993 179.01L 61.5015 179.038L 62 179ZM 60 186L 59.6143 185.682L 59.6143 185.682L 60 186ZM 58 188L 57.8078 187.538L 57.8078 187.538L 58 188ZM 54.7253 189C 54.6668 188.503 54.667 188.503 54.6671 188.503C 54.6671 188.503 54.6673 188.503 54.6673 188.503C 54.6673 188.503 54.6675 188.503 54.6675 188.503C 54.6672 188.503 54.6672 188.503 54.6667 188.503C 54.6652 188.504 54.6637 188.504 54.6608 188.504C 54.6542 188.505 54.6457 188.506 54.6328 188.507C 54.605 188.51 54.5671 188.513 54.5143 188.516C 54.4047 188.524 54.253 188.532 54.055 188.535C 53.6507 188.54 53.1067 188.523 52.4654 188.43C 51.1641 188.245 49.6199 187.798 48.3338 186.628L 47.6662 187.372C 49.1317 188.67 50.9502 189.222 52.3236 189.42C 53.0197 189.519 53.6411 189.54 54.0678 189.534C 54.2853 189.532 54.4656 189.522 54.584 189.514C 54.6452 189.51 54.6954 189.505 54.7272 189.502C 54.744 189.501 54.7582 189.499 54.7668 189.498C 54.7715 189.498 54.7758 189.497 54.7781 189.497C 54.7796 189.497 54.781 189.497 54.7817 189.497C 54.7821 189.497 54.7827 189.497 54.7829 189.497C 54.7831 189.497 54.7833 189.497 54.7834 189.497C 54.7836 189.497 54.7837 189.497 54.7253 189ZM 48.3338 186.628C 47.7221 186.079 47.1535 185.047 46.6513 183.723C 46.1525 182.41 45.7506 180.899 45.4295 179.443C 45.1084 177.988 44.8761 176.617 44.7223 175.6C 44.6457 175.094 44.5894 174.68 44.5519 174.391C 44.5333 174.246 44.5195 174.135 44.5103 174.058C 44.5057 174.02 44.5024 173.992 44.5001 173.972C 44.499 173.963 44.4982 173.956 44.4976 173.951C 44.4974 173.948 44.4972 173.947 44.497 173.946C 44.497 173.945 44.4969 173.945 44.4969 173.944C 44.4969 173.944 44.4969 173.944 44.4969 173.944C 44.4969 173.944 44.4969 173.944 44 174C 43.5031 174.056 43.5031 174.056 43.5032 174.056C 43.5032 174.056 43.5032 174.056 43.5032 174.057C 43.5032 174.057 43.5033 174.058 43.5034 174.058C 43.5035 174.06 43.5038 174.062 43.5041 174.064C 43.5047 174.07 43.5056 174.078 43.5068 174.088C 43.5092 174.108 43.5128 174.139 43.5175 174.178C 43.5269 174.256 43.5412 174.372 43.5602 174.519C 43.5981 174.812 43.6558 175.236 43.7336 175.75C 43.8887 176.775 44.1269 178.179 44.4529 179.658C 44.7789 181.135 45.2006 182.716 45.7164 184.078C 46.2289 185.429 46.8662 186.655 47.6662 187.372L 48.3338 186.628ZM 44.4989 173.967L 43.4989 158.967L 42.5011 159.033L 43.5011 174.033L 44.4989 173.967ZM 43 158.5L 3.9192e-23 158.5L 3.9192e-23 159.5L 43 159.5L 43 158.5ZM 0.499933 159.008L 1.49993 98.0082L 0.500067 97.9918L -0.499933 158.992L 0.499933 159.008ZM 1.03326 98.4989L 16.0333 97.4989L 15.9667 96.5011L 0.96674 97.5011L 1.03326 98.4989ZM 16 97C 16.4975 96.9502 16.4975 96.9503 16.4975 96.9503C 16.4975 96.9503 16.4975 96.9503 16.4975 96.9502C 16.4975 96.9499 16.4975 96.9497 16.4974 96.9492C 16.4973 96.9481 16.4972 96.9467 16.497 96.9446C 16.4965 96.9401 16.4959 96.9337 16.4951 96.9248C 16.4934 96.9064 16.491 96.88 16.4879 96.8444C 16.4816 96.7722 16.4732 96.6681 16.4636 96.533C 16.4443 96.2605 16.4213 95.8754 16.406 95.4055C 16.3749 94.4606 16.3744 93.2112 16.4977 91.9224C 16.6201 90.632 16.8531 89.3651 17.3023 88.34C 17.7422 87.3282 18.3375 86.681 19.1213 86.4851L 18.8787 85.5149C 17.6625 85.819 16.8828 86.7968 16.3852 87.9413C 15.8969 89.0724 15.6299 90.493 15.5023 91.8276C 15.3756 93.1638 15.3751 94.4769 15.4065 95.4383C 15.4224 95.9215 15.4464 96.3255 15.4661 96.6037C 15.4761 96.744 15.4851 96.8558 15.4916 96.9305C 15.4949 96.9684 15.4976 96.9983 15.4994 97.0178C 15.5004 97.0278 15.5011 97.0358 15.5016 97.0409C 15.5019 97.0436 15.5021 97.0458 15.5022 97.0471C 15.5023 97.0479 15.5024 97.0485 15.5024 97.0489C 15.5024 97.0491 15.5024 97.0493 15.5025 97.0494C 15.5025 97.0496 15.5025 97.0498 16 97ZM 19.1213 86.4851C 20.3047 86.1892 21.1482 85.311 21.7466 84.2637C 22.3338 83.23 22.7341 81.9377 22.9893 80.728C 23.2438 79.516 23.373 78.3263 23.4362 77.4581C 23.4679 77.0213 23.484 76.6556 23.4919 76.4044C 23.4959 76.2775 23.498 76.1762 23.499 76.1087C 23.4995 76.0743 23.4997 76.0471 23.4999 76.0294C 23.4999 76.0203 23.5 76.0129 23.5 76.0083C 23.5 76.0058 23.5 76.0038 23.5 76.0025C 23.5 76.0018 23.5 76.0012 23.5 76.0008C 23.5 76.0006 23.5 76.0004 23.5 76.0003C 23.5 76.0001 23.5 76 23 76C 22.5 76 22.5 75.9999 22.5 75.9999C 22.5 75.9999 22.5 75.9999 22.5 76C 22.5 76.0002 22.5 76.0004 22.5 76.0008C 22.5 76.0017 22.5 76.0029 22.5 76.0048C 22.5 76.0088 22.4999 76.0143 22.4999 76.0223C 22.4998 76.0387 22.4995 76.0621 22.4991 76.0939C 22.4981 76.1588 22.4963 76.2518 22.4924 76.3729C 22.4847 76.6179 22.4696 76.9631 22.4388 77.3856C 22.377 78.2362 22.2562 79.359 22.0107 80.522C 21.7659 81.6873 21.4162 82.8325 20.8784 83.7676C 20.3518 84.689 19.6953 85.3108 18.8787 85.5149L 19.1213 86.4851ZM 23 76C 23.4999 76.01 23.4999 76.0098 23.4999 76.0094C 23.4999 76.009 23.4999 76.0085 23.4999 76.0077C 23.5 76.0062 23.5 76.0039 23.5001 76.0009C 23.5002 75.9948 23.5004 75.9858 23.5006 75.9737C 23.5011 75.9497 23.5018 75.9138 23.5028 75.8664C 23.5047 75.7716 23.5075 75.6309 23.5111 75.4472C 23.5185 75.0798 23.5292 74.5402 23.5429 73.8517C 23.5702 72.4748 23.6093 70.5021 23.6562 68.1192C 23.7499 63.3535 23.8749 56.9471 23.9999 50.3845C 24.2499 37.2593 24.5 23.5045 24.5 21L 23.5 21C 23.5 23.4955 23.2501 37.2407 23.0001 50.3655C 22.8751 56.9279 22.7501 63.334 22.6563 68.0995C 22.6095 70.4823 22.5704 72.4549 22.5431 73.8319C 22.5294 74.5203 22.5187 75.0599 22.5113 75.4273C 22.5077 75.611 22.5049 75.7517 22.503 75.8464C 22.502 75.8938 22.5013 75.9297 22.5008 75.9538C 22.5006 75.9658 22.5004 75.9748 22.5003 75.9809C 22.5002 75.9839 22.5002 75.9862 22.5001 75.9877C 22.5001 75.9885 22.5001 75.9891 22.5001 75.9894C 22.5001 75.9898 22.5001 75.99 23 76ZM 24.5 21C 24.5 18.6315 25.6963 15.7255 26.9425 13.3579C 27.5602 12.1836 28.1746 11.1704 28.6402 10.4409C 28.8719 10.0779 29.0632 9.79092 29.1987 9.59159C 29.2659 9.49272 29.3179 9.41761 29.3539 9.36592C 29.3717 9.34046 29.3849 9.32166 29.3941 9.30865C 29.3986 9.30232 29.4017 9.29782 29.404 9.29462C 29.4051 9.29311 29.4058 9.29212 29.4063 9.29136C 29.4066 9.29102 29.4067 9.29084 29.4068 9.29067C 29.4069 9.29061 29.4069 9.2906 29.4069 9.29056C 29.4069 9.29058 29.4069 9.29062 29 9C 28.5931 8.70938 28.5931 8.70947 28.593 8.7096C 28.5929 8.70967 28.5928 8.70982 28.5927 8.70997C 28.5925 8.71023 28.5922 8.71068 28.5918 8.7112C 28.5912 8.71214 28.5901 8.71369 28.5887 8.71556C 28.5862 8.71913 28.5822 8.72475 28.5772 8.73182C 28.5675 8.7456 28.5526 8.76672 28.5338 8.79374C 28.4966 8.84704 28.4411 8.9272 28.3716 9.0295C 28.2337 9.23252 28.0344 9.53149 27.7973 9.90286C 27.3254 10.6421 26.6898 11.6914 26.0575 12.8921C 24.8037 15.2745 23.5 18.3685 23.5 21L 24.5 21ZM 29 9C 29.4881 9.10847 29.4879 9.10929 29.4877 9.11008C 29.4877 9.1103 29.4875 9.11105 29.4874 9.11149C 29.4875 9.11119 29.4868 9.11431 29.4869 9.11371C 29.4869 9.11365 29.4864 9.1159 29.4864 9.11575C 29.4859 9.11776 29.4867 9.11427 29.4879 9.1104C 29.4913 9.09806 29.4946 9.0869 29.503 9.06332C 29.5225 9.00687 29.5491 8.93851 29.601 8.83404C 29.7125 8.6064 29.8904 8.30736 30.2244 7.91798C 30.8895 7.13714 32.1413 6.05213 34.464 4.95187C 39.1183 2.74723 48.0336 0.5 65 0.5L 65 -0.5C 47.9664 -0.5 38.8817 1.75277 34.036 4.04813C 31.6087 5.19787 30.2355 6.36286 29.4631 7.26952C 29.0783 7.72389 28.8344 8.12798 28.7037 8.39253C 28.6345 8.53415 28.5849 8.65914 28.5586 8.73453C 28.5439 8.77687 28.5319 8.81625 28.5257 8.83796C 28.522 8.85113 28.5184 8.86456 28.5168 8.8712C 28.5156 8.87567 28.5144 8.88077 28.5139 8.88301C 28.5135 8.88471 28.513 8.88684 28.5128 8.88769C 28.5126 8.8884 28.5124 8.88936 28.5123 8.88971C 28.5121 8.89064 28.5119 8.89153 29 9ZM 65 0.5C 83.5888 0.5 90.0931 0.990919 96.7703 4.44412L 97.2297 3.55588C 90.2987 -0.0285718 83.5374 -0.5 65 -0.5L 65 0.5ZM 96.7703 4.44412C 98.9738 5.5837 102.717 6.9876 104.565 10.2466L 105.435 9.75337C 103.4 6.16411 99.2639 4.6079 97.2297 3.55588L 96.7703 4.44412ZM 104.565 10.2466C 106.161 13.0532 107.137 16.4808 107.727 19.2493C 108.022 20.6295 108.215 21.8258 108.336 22.6864C 108.396 23.1147 108.438 23.454 108.464 23.6895C 108.478 23.8064 108.487 23.8953 108.493 23.9564C 108.496 23.9865 108.499 24.0088 108.5 24.0242C 108.501 24.0316 108.501 24.037 108.502 24.0408C 108.502 24.0425 108.502 24.0437 108.502 24.0446C 108.502 24.045 108.502 24.0452 108.502 24.0454C 108.502 24.0455 108.502 24.0455 108.502 24.0456C 108.502 24.0455 108.502 24.0455 109 24C 109.498 23.9545 109.498 23.9544 109.498 23.9542C 109.498 23.9542 109.498 23.954 109.498 23.9538C 109.498 23.9535 109.498 23.953 109.498 23.9524C 109.498 23.9512 109.497 23.9494 109.497 23.9472C 109.497 23.943 109.496 23.9363 109.495 23.928C 109.494 23.9117 109.491 23.8868 109.488 23.8548C 109.482 23.7919 109.472 23.6973 109.458 23.5765C 109.431 23.3369 109.388 22.9846 109.326 22.5473C 109.204 21.6766 109.005 20.4453 108.705 19.0405C 108.107 16.2389 107.083 12.6665 105.435 9.75337L 104.565 10.2466ZM 109 24C 108.505 24.0671 108.505 24.0671 108.505 24.0672C 108.505 24.0673 108.505 24.0675 108.505 24.0677C 108.505 24.0681 108.505 24.0687 108.505 24.0696C 108.505 24.0714 108.505 24.074 108.506 24.0775C 108.507 24.0846 108.508 24.0951 108.51 24.1091C 108.514 24.1372 108.52 24.1789 108.527 24.2339C 108.541 24.3441 108.563 24.5066 108.59 24.7171C 108.645 25.1385 108.723 25.75 108.816 26.5134C 109.004 28.0412 109.253 30.1714 109.503 32.5913C 110.002 37.4331 110.5 43.4075 110.5 48L 111.5 48C 111.5 43.3659 110.998 37.3403 110.497 32.4887C 110.247 30.062 109.996 27.9222 109.809 26.3917C 109.715 25.6259 109.637 25.0111 109.582 24.5886C 109.554 24.3771 109.533 24.2131 109.518 24.1024C 109.511 24.047 109.505 24.0046 109.501 23.9762C 109.499 23.962 109.498 23.9512 109.497 23.944C 109.496 23.9404 109.496 23.9376 109.496 23.9358C 109.496 23.9349 109.496 23.9341 109.496 23.9337C 109.496 23.9334 109.496 23.9333 109.496 23.9331C 109.495 23.933 109.495 23.9329 109 24ZM 110.5 48C 110.5 52.2028 110.001 59.4327 109.502 65.6248C 109.252 68.7204 109.002 71.5516 108.815 73.6103C 108.721 74.6394 108.643 75.4746 108.588 76.053C 108.561 76.3421 108.539 76.5667 108.525 76.7193C 108.517 76.7955 108.512 76.8536 108.508 76.8927C 108.506 76.9122 108.505 76.9269 108.504 76.9368C 108.503 76.9417 108.503 76.9454 108.503 76.9479C 108.503 76.9492 108.502 76.9501 108.502 76.9507C 108.502 76.951 108.502 76.9512 108.502 76.9514C 108.502 76.9515 108.502 76.9516 109 77C 109.498 77.0484 109.498 77.0483 109.498 77.0482C 109.498 77.048 109.498 77.0478 109.498 77.0474C 109.498 77.0468 109.498 77.0458 109.498 77.0446C 109.498 77.0421 109.499 77.0383 109.499 77.0333C 109.5 77.0234 109.502 77.0085 109.503 76.9889C 109.507 76.9496 109.513 76.8912 109.52 76.8148C 109.535 76.662 109.556 76.4367 109.584 76.1471C 109.638 75.5682 109.717 74.7312 109.81 73.701C 109.998 71.6409 110.248 68.8046 110.498 65.7053C 110.999 59.5074 111.5 52.2372 111.5 48L 110.5 48ZM 108.508 76.9106L 106.508 87.9106L 107.492 88.0894L 109.492 77.0894L 108.508 76.9106ZM 107 88C 106.768 87.5572 106.768 87.5572 106.768 87.5572C 106.768 87.5572 106.768 87.5572 106.768 87.5572C 106.768 87.5573 106.768 87.5573 106.767 87.5574C 106.767 87.5576 106.766 87.5579 106.766 87.5583C 106.764 87.5591 106.762 87.5603 106.759 87.562C 106.752 87.5654 106.742 87.5704 106.73 87.577C 106.704 87.5905 106.666 87.61 106.617 87.6351C 106.518 87.6858 106.376 87.7576 106.201 87.8449C 105.848 88.0203 105.368 88.253 104.84 88.4914C 103.754 88.9815 102.582 89.4412 101.952 89.5023L 102.048 90.4977C 102.873 90.4177 104.201 89.8773 105.251 89.4028C 105.792 89.1588 106.289 88.918 106.646 88.7404C 106.825 88.6512 106.972 88.5767 107.073 88.5252C 107.123 88.4992 107.163 88.4786 107.19 88.4648C 107.204 88.4578 107.214 88.4523 107.221 88.4487C 107.225 88.4468 107.227 88.4454 107.229 88.4444C 107.23 88.4439 107.231 88.4435 107.231 88.4433C 107.232 88.4431 107.232 88.443 107.232 88.443C 107.232 88.4429 107.232 88.4429 107.232 88.4429C 107.232 88.4428 107.232 88.4428 107 88ZM 101.952 89.5023C 100.956 89.599 99.5997 89.3128 98.4361 88.8899C 97.859 88.6806 97.3664 88.4538 96.9876 88.2274C 96.8029 88.1178 96.6739 88.0277 96.5707 87.935C 96.4653 87.8413 96.4632 87.8085 96.4743 87.8419L 95.5257 88.1581C 95.5989 88.3778 95.7618 88.5539 95.9065 88.6824C 96.0532 88.8118 96.2592 88.9571 96.476 89.0866C 96.9006 89.3387 97.4785 89.6054 98.0944 89.8297C 99.3167 90.274 100.837 90.6152 102.048 90.4977L 101.952 89.5023ZM 96.4743 87.8419C 95.484 84.8746 94.7429 80.9159 94.2442 77.674C 93.995 76.0546 93.8086 74.6251 93.6839 73.5961C 93.6216 73.0824 93.5751 72.6712 93.5439 72.3869C 93.5284 72.2452 93.5168 72.1361 93.509 72.0618C 93.5051 72.0248 93.5023 71.9969 93.5003 71.978C 93.4994 71.9687 93.4987 71.9617 93.4982 71.957C 93.498 71.9547 93.4978 71.953 93.4977 71.9518C 93.4976 71.9512 93.4976 71.9509 93.4976 71.9506C 93.4975 71.9504 93.4975 71.9504 93.4975 71.9503C 93.4975 71.9503 93.4975 71.9502 93 72C 92.5025 72.0498 92.5025 72.0498 92.5025 72.0499C 92.5025 72.05 92.5025 72.0502 92.5025 72.0503C 92.5026 72.0507 92.5026 72.0512 92.5027 72.0518C 92.5028 72.0531 92.503 72.0551 92.5033 72.0576C 92.5038 72.0625 92.5045 72.07 92.5055 72.0797C 92.5075 72.099 92.5105 72.128 92.5144 72.1658C 92.5223 72.2409 92.5341 72.3525 92.5499 72.4959C 92.5812 72.7819 92.6284 73.1988 92.6911 73.7164C 92.8164 74.7499 93.005 76.1954 93.2558 77.826C 93.7571 81.0841 94.516 85.1254 95.5257 88.1581L 96.4743 87.8419ZM 93.5 72L 93.5 33L 92.5 33L 92.5 72L 93.5 72ZM 92.8787 32.5149L 88.8787 33.5149L 89.1213 34.4851L 93.1213 33.4851L 92.8787 32.5149ZM 88.5 33.9932L 86.5 179.993L 87.5 180.007L 89.5 34.0068L 88.5 33.9932ZM 87 180C 86.5119 180.108 86.5119 180.108 86.5118 180.108C 86.5118 180.108 86.5118 180.108 86.5118 180.108C 86.5118 180.108 86.5118 180.108 86.5118 180.108C 86.512 180.109 86.5121 180.109 86.5124 180.111C 86.5132 180.114 86.5141 180.119 86.5156 180.126C 86.5187 180.141 86.5229 180.162 86.5284 180.192C 86.54 180.255 86.5549 180.341 86.5714 180.457C 86.6055 180.696 86.642 181.021 86.6566 181.425C 86.6875 182.245 86.6339 183.281 86.2757 184.342C 85.9216 185.414 85.324 186.407 84.1841 187.183C 83.0688 187.955 81.4253 188.5 79 188.5L 79 189.5C 81.5747 189.5 83.4312 188.92 84.7534 188.005C 86.051 187.093 86.8284 185.836 87.2243 184.658C 87.6161 183.469 87.6875 182.255 87.6559 181.388C 87.6393 180.947 87.5976 180.57 87.5614 180.316C 87.5428 180.186 87.5245 180.079 87.5117 180.01C 87.505 179.974 87.4991 179.944 87.4953 179.926C 87.4933 179.916 87.4915 179.907 87.4904 179.902C 87.4898 179.899 87.4892 179.897 87.4889 179.895C 87.4887 179.894 87.4885 179.893 87.4884 179.893C 87.4883 179.893 87.4883 179.892 87.4882 179.892C 87.4882 179.892 87.4881 179.892 87 180ZM 79 188.5C 76.5975 188.5 74.8975 187.842 73.6839 186.888C 72.4386 185.921 71.7021 184.661 71.2199 183.329C 70.7354 182.005 70.5601 180.701 70.4991 179.689C 70.4685 179.188 70.4687 178.78 70.4764 178.486C 70.4801 178.341 70.4856 178.232 70.4903 178.154C 70.4926 178.116 70.4945 178.089 70.496 178.07C 70.4967 178.06 70.4972 178.054 70.4976 178.05C 70.4977 178.048 70.4978 178.047 70.4979 178.046C 70.498 178.045 70.498 178.045 70.498 178.045C 70.498 178.045 70.498 178.045 70.498 178.045C 70.498 178.045 70.4979 178.045 70 178C 69.5021 177.955 69.502 177.955 69.502 177.955C 69.502 177.955 69.502 177.956 69.5019 177.956C 69.5019 177.957 69.5018 177.958 69.5017 177.959C 69.5016 177.96 69.5013 177.963 69.5011 177.966C 69.5006 177.972 69.4998 177.982 69.4989 177.994C 69.4972 178.016 69.4947 178.05 69.4921 178.093C 69.4871 178.177 69.4808 178.303 69.4767 178.46C 69.4688 178.767 69.469 179.218 69.5009 179.749C 69.5649 180.799 69.7646 182.245 70.2801 183.671C 70.7979 185.089 71.6864 186.579 73.0661 187.674C 74.4775 188.783 76.4025 189.5 79 189.5L 79 188.5ZM 70.4998 177.988L 68.4998 97.9875L 67.5002 98.0125L 69.5002 178.012L 70.4998 177.988ZM 68.4472 97.7764L 67.4472 95.7764L 66.5528 96.2236L 67.5528 98.2236L 68.4472 97.7764ZM 66.584 95.7226L 64.584 98.7226L 65.416 99.2774L 67.416 96.2774L 66.584 95.7226ZM 64.5004 98.9813L 61.5004 178.981L 62.4996 179.019L 65.4996 99.0187L 64.5004 98.9813ZM 62 179C 61.5015 179.038 61.5015 179.038 61.5014 179.038C 61.5014 179.038 61.5014 179.038 61.5014 179.038C 61.5014 179.038 61.5014 179.038 61.5014 179.038C 61.5015 179.038 61.5015 179.038 61.5015 179.039C 61.5016 179.041 61.5018 179.042 61.502 179.046C 61.5025 179.053 61.5031 179.062 61.5039 179.076C 61.5055 179.106 61.5076 179.147 61.5096 179.203C 61.5137 179.319 61.517 179.481 61.514 179.691C 61.5081 180.118 61.478 180.695 61.3761 181.37C 61.1721 182.737 60.7182 184.36 59.6143 185.682L 60.3857 186.318C 61.6033 184.826 62.1494 182.949 62.365 181.519C 62.4729 180.796 62.5075 180.151 62.5139 179.705C 62.517 179.478 62.5133 179.291 62.509 179.168C 62.5067 179.104 62.5041 179.052 62.5022 179.019C 62.5012 179.002 62.5003 178.987 62.4997 178.979C 62.4994 178.974 62.4991 178.97 62.4989 178.967C 62.4988 178.966 62.4987 178.964 62.4987 178.964C 62.4986 178.963 62.4986 178.963 62.4986 178.962C 62.4986 178.962 62.4986 178.962 62.4986 178.962C 62.4985 178.962 62.4985 178.962 62 179ZM 59.6143 185.682C 59.0613 186.352 58.9192 186.82 58.8454 186.947C 58.7959 187.032 58.716 187.16 57.8078 187.538L 58.1922 188.462C 59.0768 188.093 59.4701 187.86 59.709 187.451C 59.9237 187.083 59.8852 186.925 60.3857 186.318L 59.6143 185.682ZM 57.8078 187.538C 57.6586 187.601 57.2957 187.69 56.7632 187.792C 56.2472 187.89 55.6262 187.991 54.9928 188.087C 53.726 188.278 52.4372 188.441 51.938 188.504L 52.062 189.496C 52.5623 189.434 53.8635 189.268 55.1418 189.076C 55.781 188.979 56.4214 188.875 56.9511 188.774C 57.4643 188.676 57.9314 188.57 58.1922 188.462L 57.8078 187.538Z"/>
    <path
      id="path6_fill"
      fill-rule="evenodd"
      d="M 2.08779 25.2092L 2.08779 63.5177L 0.0877915 63.5177L 0.0877915 6L 0.0877915 3.66068C 0.0877915 3.66068 -0.109739 1.23647 0.0877915 1C 0.556927 0.438379 2.08779 1.2664 2.08779 1.2664C 2.08779 1.2664 2.08779 -8.31072 2.08779 25.2092Z"/>
    <path id="path7_fill" fill-rule="evenodd" d="M 16.75 34.5C 26.0044 34.5 33.5 26.7806 33.5 17.25C 33.5 7.71937 26.0044 0 16.75 0C 7.49562 0 0 7.71937 0 17.25C 0 26.7806 7.49562 34.5 16.75 34.5Z"/>
    <path
      id="path8_stroke"
      d="M 23 4L 285 4L 285 -4L 23 -4L 23 4ZM 285 4C 295.493 4 304 12.5066 304 23L 312 23C 312 8.08831 299.912 -4 285 -4L 285 4ZM 304 23L 304 299L 312 299L 312 23L 304 23ZM 304 299C 304 309.493 295.493 318 285 318L 285 326C 299.912 326 312 313.912 312 299L 304 299ZM 285 318L 23 318L 23 326L 285 326L 285 318ZM 23 318C 12.5066 318 4 309.493 4 299L -4 299C -4 313.912 8.08831 326 23 326L 23 318ZM 4 299L 4 23L -4 23L -4 299L 4 299ZM 4 23C 4 12.5066 12.5066 4 23 4L 23 -4C 8.08831 -4 -4 8.08831 -4 23L 4 23Z"/>
    <path
      id="path9_fill"
      fill-rule="evenodd"
      d="M 8 4.0204C 9 3.0204 16 0.0204088 16 0.0204088C 16 0.0204088 30 -0.979599 38 11.0204L 35 81.0204C 35 81.0204 23 74.0204 19 76.0204C 19 76.0204 20 75.0204 11 76.0204C 2 77.0204 0 78.0204 0 78.0204L 1 61C 1 61 9.32653 49.8452 14 44C 18.6599 38.1718 28 26 28 26C 28 26 28.7924 24.0235 29 22C 29.195 20.0994 28.906 18.3276 26 13C 25.2983 11.7136 22 10.6967 21 10.6967C 20.3944 10.6967 19.1533 10.4746 18 10.6967C 17.249 10.8414 17 11.0204 16 11.0204C 15.6154 11.0204 14.3226 11.7107 14 12C 13.1018 12.8057 12.2837 13.9385 11 15C 5.87673 19.2367 1 25.0204 1 25.0204C 1 25.0204 1.88423 16.6202 3.65269 10.6967C 4.5439 7.71161 7.68614 3.67734 9 3.02041"/>
    <path id="path10_fill" fill-rule="evenodd" d="M 69.9221 23.2664C 69.6869 65.2649 69 158 69 158L 62 158L 62 111L 8 111L 8 159L 0 159L 0 100L 62 99L 64 0L 70 0C 70 3.08142 69.9707 14.5916 69.9221 23.2664Z"/>
    <path
      id="path11_fill"
      fill-rule="evenodd"
      d="M 0.183594 56.0217C 1.64763 57.8517 3.25541 57.2861 4.18359 58.0217C 5.79137 59.2959 9.18359 59.0217 9.18359 59.0217L 13.1836 59.0217L 28.1836 59.0217L 45.1836 56.0217C 45.1836 56.0217 53.1836 54.0217 52.1836 53.0217C 51.7721 52.6102 54.4759 50.6255 57.1836 48.0217C 61.056 44.2978 82.7855 16.4767 83.1836 16.0217C 84.3594 14.6779 87.1836 11.0217 86.1836 7.0217C 85.7799 5.40706 85.4815 4.48285 84.1836 3.0217C 83.0288 1.72158 79.9265 -0.227288 78.1836 0.021704C 77.3281 0.143923 76.0263 0.665296 75.1836 1.0217C 69.1309 3.58143 64.1836 11.0217 64.1836 11.0217L 58.1836 18.0217C 58.1836 18.0217 51.6947 26.2806 51.1836 27.0217C 49.0316 30.1416 46.1836 34.0217 46.1836 34.0217L 44.1836 36.0217L 41.1836 38.0217L 13.1836 46.0217C 13.1836 46.0217 6.22416 47.8776 2.41815 50.0091C 0.636516 51.0069 -0.454111 54.0651 0.183594 55.0217"/>
    <path
      id="path12_fill"
      fill-rule="evenodd"
      d="M 99 14C 99 14.8846 98.8647 15.7209 98.6208 16.5099C 96.3831 23.7477 85 27 85 27L 73 29L 51 29C 51 29 38 32 37 31L 27 61L 18 86C 18 86 14 98 6 94C -2 90 2 93 0 84L 7 59L 18 20C 18 20 19 10 33 7L 74 0L 89 0C 89 0 100 6 99 13"/>
    <path id="path13_fill" fill-rule="evenodd" d="M 24 8L 24 26L 24 96L 35 96L 35 7L 94 7L 94 0L 0 0L 0 7L 24 7"/>
  </defs>
</svg>
