<svg width="205" height="135" viewBox="0 0 205 135" version="1.1" xmlns="http://www.w3.org/2000/svg" xmlns:xlink="http://www.w3.org/1999/xlink">
<title>pip</title>
<desc>Created using Figma</desc>
<g id="Canvas" transform="translate(491 281)">
<g id="pip">
<use xlink:href="#path0_fill" transform="translate(-500 -313)" fill="#63E5BB"/>
</g>
</g>
<defs>
<path id="path0_fill" d="M 27.6328 70.4688L 27.6328 72.7891C 31.2422 68.3359 34.9922 65.0781 38.8828 63.0156C 42.7734 60.9062 47.1797 59.8516 52.1016 59.8516C 58.0078 59.8516 63.4453 61.375 68.4141 64.4219C 73.3828 67.4688 77.2969 71.9219 80.1562 77.7812C 83.0625 83.6406 84.5156 90.5781 84.5156 98.5938C 84.5156 104.5 83.6719 109.938 81.9844 114.906C 80.3438 119.828 78.0703 123.977 75.1641 127.352C 72.2578 130.68 68.8125 133.258 64.8281 135.086C 60.8906 136.867 56.6484 137.758 52.1016 137.758C 46.6172 137.758 42 136.656 38.25 134.453C 34.5469 132.25 31.0078 129.016 27.6328 124.75L 27.6328 153.578C 27.6328 162.016 24.5625 166.234 18.4219 166.234C 14.8125 166.234 12.4219 165.133 11.25 162.93C 10.0781 160.773 9.49219 157.609 9.49219 153.438L 9.49219 70.6094C 9.49219 66.9531 10.2891 64.2344 11.8828 62.4531C 13.4766 60.625 15.6562 59.7109 18.4219 59.7109C 21.1406 59.7109 23.3438 60.6484 25.0312 62.5234C 26.7656 64.3516 27.6328 67 27.6328 70.4688ZM 65.25 98.3828C 65.25 93.3203 64.4766 88.9844 62.9297 85.375C 61.3828 81.7188 59.2266 78.9297 56.4609 77.0078C 53.7422 75.0391 50.7188 74.0547 47.3906 74.0547C 42.0938 74.0547 37.6172 76.1406 33.9609 80.3125C 30.3516 84.4844 28.5469 90.625 28.5469 98.7344C 28.5469 106.375 30.3516 112.328 33.9609 116.594C 37.5703 120.812 42.0469 122.922 47.3906 122.922C 50.5781 122.922 53.5312 122.008 56.25 120.18C 58.9688 118.305 61.1484 115.516 62.7891 111.812C 64.4297 108.109 65.25 103.633 65.25 98.3828ZM 119.109 70.6094L 119.109 126.086C 119.109 129.93 118.195 132.836 116.367 134.805C 114.539 136.773 112.219 137.758 109.406 137.758C 106.594 137.758 104.297 136.75 102.516 134.734C 100.781 132.719 99.9141 129.836 99.9141 126.086L 99.9141 71.1719C 99.9141 67.375 100.781 64.5156 102.516 62.5938C 104.297 60.6719 106.594 59.7109 109.406 59.7109C 112.219 59.7109 114.539 60.6719 116.367 62.5938C 118.195 64.5156 119.109 67.1875 119.109 70.6094ZM 109.617 50.7812C 106.945 50.7812 104.648 49.9609 102.727 48.3203C 100.852 46.6797 99.9141 44.3594 99.9141 41.3594C 99.9141 38.6406 100.875 36.4141 102.797 34.6797C 104.766 32.8984 107.039 32.0078 109.617 32.0078C 112.102 32.0078 114.305 32.8047 116.227 34.3984C 118.148 35.9922 119.109 38.3125 119.109 41.3594C 119.109 44.3125 118.172 46.6328 116.297 48.3203C 114.422 49.9609 112.195 50.7812 109.617 50.7812ZM 156.727 70.4688L 156.727 72.7891C 160.336 68.3359 164.086 65.0781 167.977 63.0156C 171.867 60.9062 176.273 59.8516 181.195 59.8516C 187.102 59.8516 192.539 61.375 197.508 64.4219C 202.477 67.4688 206.391 71.9219 209.25 77.7812C 212.156 83.6406 213.609 90.5781 213.609 98.5938C 213.609 104.5 212.766 109.938 211.078 114.906C 209.438 119.828 207.164 123.977 204.258 127.352C 201.352 130.68 197.906 133.258 193.922 135.086C 189.984 136.867 185.742 137.758 181.195 137.758C 175.711 137.758 171.094 136.656 167.344 134.453C 163.641 132.25 160.102 129.016 156.727 124.75L 156.727 153.578C 156.727 162.016 153.656 166.234 147.516 166.234C 143.906 166.234 141.516 165.133 140.344 162.93C 139.172 160.773 138.586 157.609 138.586 153.438L 138.586 70.6094C 138.586 66.9531 139.383 64.2344 140.977 62.4531C 142.57 60.625 144.75 59.7109 147.516 59.7109C 150.234 59.7109 152.438 60.6484 154.125 62.5234C 155.859 64.3516 156.727 67 156.727 70.4688ZM 194.344 98.3828C 194.344 93.3203 193.57 88.9844 192.023 85.375C 190.477 81.7188 188.32 78.9297 185.555 77.0078C 182.836 75.0391 179.812 74.0547 176.484 74.0547C 171.188 74.0547 166.711 76.1406 163.055 80.3125C 159.445 84.4844 157.641 90.625 157.641 98.7344C 157.641 106.375 159.445 112.328 163.055 116.594C 166.664 120.812 171.141 122.922 176.484 122.922C 179.672 122.922 182.625 122.008 185.344 120.18C 188.062 118.305 190.242 115.516 191.883 111.812C 193.523 108.109 194.344 103.633 194.344 98.3828Z"/>
</defs>
</svg>