      <svg width="120" height="40" viewBox="0 0 321 152" version="1.1" xmlns="http://www.w3.org/2000/svg" xmlns:xlink="http://www.w3.org/1999/xlink">
        <path
          d="M0.0100002 84.42L20.21 64.97L28.34 66.63L41.92 62.02L44.94 58.44L64.09 46.09H68.97L79 42.59L100.56 20.82L121.23 8.26999L131.44 0.209991L144.66 8.57999L152.87 15.73L167.79 18.12L148.24 21.94L140.89 14.58L131.62 10.54L123.04 16.22L103 26.94L83.47 43.6L77.22 46.15L68.89 48.9L63.05 49.73L46.92 59.49L47.25 62.62L39.72 64.58L30.65 67.8L37.51 70.21L23.29 67.76L0.0100002 84.42Z"
          fill="#3273dc"
        />
        <path
          d="M41.67 63.05L44.18 63.42L63.98 59.08L47.06 61.16L50.12 56.05L45.76 59.91L41.67 63.05Z"
          fill="#3273dc"
        />
        <path
          d="M285.06 71.73L248.61 45.64L223.53 33.99L202.44 14.17L188.03 3.61L166.55 3.84L155.63 0L139.69 8.77L144.06 12.64L150.29 9.7L156.94 7.65L167.79 11.42L177.23 10.04L178.12 11.56L171.8 18.74L183.94 13.44L185.01 10.56L189.54 12.69L199.04 19.5L222.37 38.78L246.82 48.81L282.21 73.86L316.69 84.42L285.06 71.73Z"
          fill="#3273dc"
        />
        <path
          d="M107.12 45.23L103.44 38.31L106.27 31.41L110.59 34.41L110.75 30.32L118.58 23.25L112.85 25.3L104.64 28.54L99.69 35.03L83.9 48.68H90.56L93.19 54.99L92.72 58.79L95.38 54.12L93.69 46.12L99.44 38.44L107.12 45.23Z"
          fill="#3273dc"
        />
        <path
          d="M77.22 46.15L74.69 49.99L67.74 56.05L73.01 49.83L68.38 48.97L71.45 47.68L77.22 46.15Z"
          fill="#3273dc"
        />
        <path
          d="M210.91 36.78L222.98 48.21L230.75 50.26L235.37 50.94L246.82 58.79L238.93 56.91L237.69 58.79L232.58 55.21L221.12 50.94L212.9 44.08L204.76 42.59L207.09 38.42L204.76 36.29L200.43 38.25L197.95 34.67L200.28 31.77L190.31 20.39L204.25 30.46L213.69 35.32L210.91 36.78Z"
          fill="#3273dc"
        />
        <path
          d="M184.05 17.55L177.66 21.46L185.91 31.4L193.11 32.73L187.88 26.59V22.24L184.05 17.55Z"
          fill="#3273dc"
        />
        <path
          d="M140.66 31.64L138.65 26.01L134.94 17.14L136.33 27.97L132.29 32.93L135.85 36.52L132.29 40.78L133.35 42.01L120.67 51.8L141.54 41.71L141.9 36.59L146.08 27.97L140.66 31.64Z"
          fill="#3273dc"
        />
        <path
          d="M153.59 33.09L164.57 41.94L173.22 43.36L185.84 56.37L204.91 58.65L224.25 76.21L206.99 56.75L186.83 52.82L174.5 39.45L164.92 38.16L153.59 33.09Z"
          fill="#3273dc"
        />
          <path
            d="M311.38 105.48V102.27C311.429 101.934 311.382 101.591 311.246 101.28C311.11 100.969 310.89 100.702 310.61 100.51C309.985 100.22 309.297 100.096 308.61 100.15H294.61V107.6H308.61C309.297 107.654 309.985 107.53 310.61 107.24C310.889 107.047 311.109 106.78 311.245 106.469C311.38 106.158 311.427 105.816 311.38 105.48V105.48ZM320.18 122.24H311.28L300.52 112.15H294.62V122.24H288.52V95.54H311.38C315.38 95.54 317.38 97.27 317.38 100.72V107C317.38 109.58 316.38 111.19 314.27 111.81C312.151 112.146 310.003 112.266 307.86 112.17L320.18 122.24ZM262.82 122.24H235.24V95.54H262.56V100.1H241.45V106.1H253.76V110.65H241.45V117.27H262.82V122.24ZM207.37 122.24H201.16V95.54H207.37V122.24ZM173.37 122.24H169.12L149.52 105.74C148.719 105.075 147.973 104.346 147.29 103.56C147.46 105.29 147.55 106.65 147.55 107.65V122.24H141.96V95.54H146.2L165 111.27C166.089 112.162 167.111 113.131 168.06 114.17C167.88 111.69 167.8 110.17 167.8 109.56V95.56H173.39L173.37 122.24ZM114.14 122.24H107.9V95.54H114.11L114.14 122.24ZM72.32 111.58L66.58 100.72L60.63 111.58H72.32ZM85.1 122.24H78.1L74.9 116.39H58L54.89 122.24H48.69L63.79 95.54H69.79L85.1 122.24ZM22.87 105.48V102.27C22.9186 101.934 22.8722 101.591 22.7361 101.28C22.6001 100.969 22.3797 100.702 22.1 100.51C21.4746 100.222 20.7864 100.099 20.1 100.15H6.1V107.6H20.1C20.7864 107.651 21.4746 107.528 22.1 107.24C22.3789 107.047 22.5985 106.78 22.7345 106.469C22.8705 106.158 22.9174 105.816 22.87 105.48ZM31.67 122.24H22.77L12 112.15H6.11V122.24H0V95.54H22.87C26.87 95.54 28.87 97.2667 28.87 100.72V107C28.87 109.58 27.87 111.19 25.77 111.81C23.6476 112.146 21.4967 112.267 19.35 112.17L31.67 122.24Z"
            fill="#231f20"
          />
          <path
            fillRule="evenodd"
            clipRule="evenodd"
            d="M316.58 151.63H301.39V132.63H305.62V147.48H316.94V151.64L316.58 151.63ZM284.82 147.47V136.6H273.94V147.47H284.82ZM289 147C289 148.79 288.7 150 288.1 150.68C287.746 151.05 287.296 151.314 286.8 151.44C286.182 151.613 285.542 151.694 284.9 151.68H273.82C273.178 151.693 272.538 151.613 271.92 151.44C271.425 151.311 270.975 151.048 270.62 150.68V150.68C270.269 150.256 270.032 149.75 269.93 149.21C269.778 148.484 269.707 147.742 269.72 147V137.3C269.707 136.558 269.778 135.816 269.93 135.09C270.032 134.55 270.269 134.044 270.62 133.62C270.975 133.25 271.425 132.984 271.92 132.85C272.54 132.687 273.179 132.609 273.82 132.62H284.94C285.581 132.608 286.22 132.685 286.84 132.85C287.335 132.984 287.785 133.25 288.14 133.62C288.74 134.28 289.04 135.51 289.04 137.3L289 147ZM253.81 139.83V137.64C253.818 137.423 253.787 137.206 253.72 137C253.688 136.892 253.621 136.797 253.53 136.73V136.73C253.245 136.579 252.921 136.516 252.6 136.55H245.06V140.94H252.6C252.921 140.974 253.245 140.911 253.53 140.76V140.76C253.621 140.693 253.688 140.598 253.72 140.49C253.81 140.264 253.854 140.023 253.85 139.78L253.81 139.83ZM259.14 151.68H254L253.9 151.56L247.9 144.77H245.08V151.68H240.91V132.68H254.2C256.7 132.68 257.95 133.98 257.95 136.58V140.87C257.98 141.674 257.815 142.473 257.47 143.2C257.152 143.813 256.612 144.282 255.96 144.51V144.51C255.523 144.632 255.073 144.699 254.62 144.71C254.19 144.71 253.68 144.71 253.08 144.77L259.43 151.08L259.14 151.68ZM231.27 136.68H224.7V151.68H220.48V136.68H213.54V132.68H231.66V136.68H231.27ZM203.92 151.68H201.38L201.27 151.57L190.18 140.27C189.99 140.07 189.8 139.87 189.61 139.65V140.09C189.61 140.57 189.61 140.99 189.61 141.32V151.68H185.74V132.68H188.64L188.74 132.79L199.36 143.56C199.74 143.96 200.08 144.32 200.36 144.66V144.71C200.36 144.35 200.36 144.03 200.31 143.71C200.31 143.17 200.31 142.8 200.31 142.61V132.61H204.18V151.61L203.92 151.68ZM169.26 147.52V136.6H158.42V147.47L169.26 147.52ZM173.48 147C173.48 148.79 173.18 150 172.58 150.68C172.229 151.048 171.782 151.311 171.29 151.44C170.668 151.612 170.025 151.693 169.38 151.68H158.3C157.658 151.693 157.018 151.613 156.4 151.44C155.905 151.311 155.455 151.048 155.1 150.68V150.68C154.749 150.256 154.512 149.75 154.41 149.21C154.258 148.484 154.187 147.742 154.2 147V137.3C154.187 136.558 154.258 135.816 154.41 135.09C154.512 134.55 154.749 134.044 155.1 133.62C155.455 133.25 155.905 132.984 156.4 132.85C157.02 132.687 157.659 132.609 158.3 132.62H169.42C170.064 132.608 170.707 132.686 171.33 132.85C171.821 132.986 172.267 133.252 172.62 133.62C173.22 134.28 173.52 135.51 173.52 137.3L173.48 147ZM142.28 147C142.293 147.742 142.222 148.484 142.07 149.21C141.968 149.75 141.731 150.256 141.38 150.68V150.68C141.023 151.046 140.574 151.309 140.08 151.44C139.459 151.613 138.815 151.694 138.17 151.68H129.17C128.528 151.693 127.888 151.613 127.27 151.44C126.775 151.311 126.325 151.048 125.97 150.68V150.68C125.619 150.256 125.382 149.75 125.28 149.21C125.128 148.484 125.057 147.742 125.07 147V137.3C125.057 136.558 125.128 135.816 125.28 135.09C125.382 134.55 125.619 134.044 125.97 133.62C126.327 133.252 126.776 132.986 127.27 132.85C127.89 132.687 128.529 132.609 129.17 132.62H138.17C138.967 132.593 139.76 132.732 140.5 133.03C141.098 133.28 141.575 133.754 141.83 134.35V134.35C142.034 134.895 142.149 135.469 142.17 136.05C142.24 136.82 142.28 137.82 142.28 139.05V139.35H141.99L138.47 140.03L138.05 140.11V136.6H129.29V147.47H138.05V143.47L138.5 143.58L142.01 144.46L142.28 144.53V147V147ZM98.83 136.6H92.22V151.6H88V136.6H81.06V132.6H99.19V136.6H98.83ZM72.25 147C72.2623 147.745 72.1919 148.49 72.04 149.22C71.9327 149.758 71.692 150.26 71.34 150.68C70.9796 151.046 70.527 151.309 70.03 151.44C69.4084 151.612 68.765 151.693 68.12 151.68H58.79C58.1142 151.692 57.4404 151.604 56.79 151.42C56.2734 151.274 55.8176 150.965 55.49 150.54C55.1691 150.059 54.9606 149.512 54.88 148.94C54.7395 148.135 54.6759 147.318 54.69 146.5V146.22L54.96 146.15L58.06 145.37L58.5 145.26V147.52H68.5V144H59.37C58.7283 144.013 58.0882 143.933 57.47 143.76C56.975 143.631 56.5252 143.368 56.17 143C55.8211 142.575 55.584 142.07 55.48 141.53C55.3275 140.8 55.257 140.056 55.27 139.31V137.31C55.2571 136.568 55.3275 135.826 55.48 135.1C55.5819 134.56 55.8193 134.054 56.17 133.63C56.5268 133.262 56.9757 132.996 57.47 132.86C58.0898 132.697 58.7291 132.619 59.37 132.63H68C68.5768 132.562 69.1615 132.616 69.7161 132.788C70.2708 132.961 70.7831 133.247 71.22 133.63C71.5618 134.064 71.7919 134.576 71.89 135.12C72.0423 135.857 72.1127 136.608 72.1 137.36V137.63L71.84 137.71L68.74 138.6L68.28 138.73V136.52H59.06V139.73H68.12C68.7564 139.729 69.3895 139.82 70 140C70.4977 140.135 70.9501 140.401 71.31 140.77C71.6643 141.189 71.9053 141.692 72.01 142.23C72.1625 142.96 72.233 143.704 72.22 144.45L72.25 147ZM43.35 151.68H27.35V132.68H43.56V136.52H31.63V139.87H38.63V143.71H31.63V147.53H43.71V151.69L43.35 151.68ZM12.93 139.54V137.59C12.9354 137.374 12.9084 137.158 12.85 136.95C12.8177 136.842 12.751 136.747 12.66 136.68V136.68C12.5706 136.617 12.4679 136.576 12.36 136.56C12.1564 136.516 11.9483 136.496 11.74 136.5H4.17V140.64H11.71C11.9162 140.659 12.1238 140.659 12.33 140.64C12.4379 140.624 12.5406 140.583 12.63 140.52V140.52C12.7183 140.455 12.7846 140.364 12.82 140.26C12.8961 140.028 12.9332 139.784 12.93 139.54V139.54ZM17 140.6C17.0751 141.657 16.7342 142.701 16.05 143.51C15.6771 143.86 15.236 144.13 14.7542 144.302C14.2725 144.474 13.7604 144.545 13.25 144.51H4.17V151.63H0V132.63H13.29C15.79 132.63 17.04 133.93 17.04 136.53L17 140.6Z"
            fill="#231f20"
          />
      </svg>