<svg width="26" height="26" viewBox="0 0 26 26" fill="none" xmlns="http://www.w3.org/2000/svg">
<path fill-rule="evenodd" clip-rule="evenodd" d="M24.89 1.08002C25.16 0.940002 25.49 0.980042 25.72 1.17999C25.96 1.39001 26.06 1.72003 25.96 2.01001L19.45 23.1C19.35 23.43 19.12 23.67 18.81 23.78C18.7 23.82 18.58 23.84 18.47 23.84C18.28 23.84 18.09 23.78 17.92 23.67L12.96 20.89L8.87994 25.81C8.77997 25.93 8.63995 25.99 8.48999 25.99C8.42999 25.99 8.37994 25.98 8.31995 25.96C8.12 25.89 7.98999 25.7 7.98999 25.49V18.49C7.98999 18.38 8.03998 18.27 8.10999 18.18L1.48999 14.47C1.48499 14.465 1.47998 14.4625 1.47498 14.46C1.46997 14.4575 1.46497 14.455 1.45996 14.45C1.14996 14.25 0.969971 13.88 0.98999 13.5C1.00995 13.11 1.21997 12.78 1.56 12.61L24.89 1.08002ZM2.01001 13.5L1.73999 14.03L1.97998 13.59L8.83997 17.44L23.61 2.82001L2.01001 13.5ZM9 24.11V18.7L9.02002 18.68L12.08 20.39L9 24.11ZM9.75995 17.95L18.4399 22.82L24.4999 3.35999L9.75995 17.95Z" fill="#0E1D25"/>
</svg>
