<svg width="25" height="21" viewBox="0 0 25 21" fill="none" xmlns="http://www.w3.org/2000/svg">
<path fill-rule="evenodd" clip-rule="evenodd" d="M25 1.25V19.75C25 20.4399 24.4399 21 23.75 21H1.25C0.560059 21 0 20.4399 0 19.75V1.25C0 0.560059 0.560059 0 1.25 0H23.75C24.4399 0 25 0.560059 25 1.25ZM14.0701 8.26001L14.9601 8.70996L10.9401 16.71L10.05 16.26L14.0701 8.26001ZM5.14001 12.8499C4.93994 12.6499 4.93994 12.3398 5.14001 12.1399L8.14001 9.13989L8.84998 9.84985L6.19995 12.5L8.84998 15.1499L8.14001 15.8599L5.14001 12.8499ZM16.86 15.8499L19.86 12.8499C20.0601 12.6499 20.0601 12.3398 19.86 12.1399L16.86 9.13989L16.15 9.84985L18.8 12.5L16.15 15.1499L16.86 15.8499ZM1 6H24V19.75C24 19.8899 23.89 20 23.75 20H1.25C1.10999 20 1 19.8899 1 19.75V6ZM24 1.25C24 1.11011 23.89 1 23.75 1H1.25C1.10999 1 1 1.11011 1 1.25V5H24V1.25ZM2 3C2 2.44995 2.44995 2 3 2C3.55005 2 4 2.44995 4 3C4 3.55005 3.55005 4 3 4C2.44995 4 2 3.55005 2 3ZM6 2C5.44995 2 5 2.44995 5 3C5 3.55005 5.44995 4 6 4C6.55005 4 7 3.55005 7 3C7 2.44995 6.55005 2 6 2ZM8 3C8 2.44995 8.44995 2 9 2C9.55005 2 10 2.44995 10 3C10 3.55005 9.55005 4 9 4C8.44995 4 8 3.55005 8 3Z" fill="#0E1D25"/>
</svg>
